<svg xmlns="http://www.w3.org/2000/svg" xmlns:xlink="http://www.w3.org/1999/xlink" width="585" height="308" viewBox="0 0 585 308">
  <defs>
    <clipPath id="clip-path">
      <rect id="Rectangle_710" data-name="Rectangle 710" width="585" height="308" rx="19" transform="translate(0.283 -0.245)" fill="#f5e7c7" stroke="#707070" stroke-width="1"/>
    </clipPath>
  </defs>
  <g id="Mask_Group_3" data-name="Mask Group 3" transform="translate(-0.283 0.245)" clip-path="url(#clip-path)">
    <g id="Layer_2" data-name="Layer 2" transform="translate(0 15.556)">
      <g id="_лой_1" data-name="‘лой_1" transform="translate(37.057 17.513)">
        <path id="Path_1090" data-name="Path 1090" d="M506.406,225.7c-.069.215-.143.431-.215.648q-.937,2.755-2.067,5.579-.155.4-.319.791-1.373,3.377-3.038,6.884h0l-.039.083-471.59.641c.109-1.887-43.067-62.854,2.118-122.193S129.274,90.774,140.114,49.02a63.746,63.746,0,0,1,10.943-22.954c.256-.339.517-.674.784-1q1.017-1.276,2.093-2.471.3-.334.6-.662a59.187,59.187,0,0,1,5.812-5.495c.409-.339.824-.674,1.244-1h0c25.1-19.641,64.559-18.8,92.747-7.122,37.431,15.511,105.944-11.45,164.484,8.25q1.456.489,2.9,1.02h0q3.041,1.11,6.04,2.4a63.187,63.187,0,0,1,11.473,6.354c.471.334.935.672,1.387,1.013h0c40.553,30.6,4.5,94.754,25.446,104.675,13.144,6.225,32.547,20.2,40.938,42.89.108.289.212.577.314.868.115.323.226.646.335.973.1.291.2.586.288.883C512.2,190.81,512.707,206.778,506.406,225.7Z" transform="translate(-2.398 -0.009)" fill="#ebf3fa"/>
        <g id="Group_60" data-name="Group 60" transform="translate(144.331 43.67)" opacity="0.4">
          <rect id="Rectangle_598" data-name="Rectangle 598" width="36.471" height="30.072" transform="translate(124.471 30.072) rotate(180)" fill="#c3dafc"/>
          <rect id="Rectangle_599" data-name="Rectangle 599" width="36.471" height="30.072" transform="translate(142.707 30.072) rotate(180)" fill="#d4e4f8"/>
          <path id="Path_1091" data-name="Path 1091" d="M300,84.563h5.78l-.51-1.626.51-1.163H300Z" transform="translate(-211.983 -62.118)" fill="#9dc3f3"/>
          <path id="Path_1092" data-name="Path 1092" d="M323.521,67.6h5.78l-.51-1.627.51-1.161h-5.78Z" transform="translate(-217.286 -58.292)" fill="#e3f0ff"/>
          <path id="Path_1093" data-name="Path 1093" d="M321.839,64.81H316.06l.508,1.626L316.06,67.6h5.779Z" transform="translate(-215.604 -58.292)" fill="#9dc3f3"/>
          <path id="Path_1094" data-name="Path 1094" d="M368.93,85.792h-5.779l.508,1.626-.508,1.163h5.779Z" transform="translate(-226.223 -63.024)" fill="#e3f0ff"/>
          <rect id="Rectangle_600" data-name="Rectangle 600" width="10.495" height="4.082" transform="translate(129.823 2.039)" fill="#fff"/>
          <rect id="Rectangle_601" data-name="Rectangle 601" width="36.471" height="30.072" transform="translate(60.062 30.072) rotate(180)" fill="#c3dafc"/>
          <rect id="Rectangle_602" data-name="Rectangle 602" width="36.471" height="30.072" transform="translate(78.298 30.072) rotate(180)" fill="#d4e4f8"/>
          <path id="Path_1095" data-name="Path 1095" d="M216.842,84.563h5.779l-.508-1.626.508-1.163h-5.779Z" transform="translate(-193.23 -62.118)" fill="#9dc3f3"/>
          <path id="Path_1096" data-name="Path 1096" d="M240.361,67.6h5.779l-.508-1.627.508-1.161h-5.779Z" transform="translate(-198.533 -58.292)" fill="#e3f0ff"/>
          <path id="Path_1097" data-name="Path 1097" d="M238.678,64.81H232.9l.51,1.626L232.9,67.6h5.78Z" transform="translate(-196.85 -58.292)" fill="#9dc3f3"/>
          <path id="Path_1098" data-name="Path 1098" d="M285.769,85.792h-5.78l.51,1.626-.51,1.163h5.78Z" transform="translate(-207.469 -63.024)" fill="#e3f0ff"/>
          <rect id="Rectangle_603" data-name="Rectangle 603" width="10.495" height="4.082" transform="translate(65.415 2.039)" fill="#fff"/>
          <rect id="Rectangle_604" data-name="Rectangle 604" width="14.028" height="167.317" transform="translate(0 30.072)" fill="#c3dafc"/>
          <rect id="Rectangle_605" data-name="Rectangle 605" width="11.66" height="167.317" transform="translate(153.795 30.072)" fill="#c3dafc"/>
          <rect id="Rectangle_606" data-name="Rectangle 606" width="151.428" height="4.354" transform="translate(14.028 30.072)" fill="#c3dafc"/>
          <rect id="Rectangle_607" data-name="Rectangle 607" width="151.428" height="4.354" transform="translate(14.028 109.377)" fill="#c3dafc"/>
          <rect id="Rectangle_608" data-name="Rectangle 608" width="151.428" height="4.354" transform="translate(14.028 175.89)" fill="#c3dafc"/>
          <rect id="Rectangle_609" data-name="Rectangle 609" width="37.706" height="31.091" transform="translate(128.232 109.377) rotate(180)" fill="#a9c8ed"/>
          <rect id="Rectangle_610" data-name="Rectangle 610" width="37.706" height="31.091" transform="translate(147.085 109.377) rotate(180)" fill="#d4e4f8"/>
          <path id="Path_1099" data-name="Path 1099" d="M303.266,186.6h5.975l-.526-1.68.526-1.2h-5.975Z" transform="translate(-212.718 -85.105)" fill="#9dc3f3"/>
          <path id="Path_1100" data-name="Path 1100" d="M327.58,169.057h5.975l-.526-1.682.526-1.2H327.58Z" transform="translate(-218.201 -81.15)" fill="#e3f0ff"/>
          <path id="Path_1101" data-name="Path 1101" d="M325.84,166.173h-5.975l.526,1.682-.526,1.2h5.975Z" transform="translate(-216.462 -81.15)" fill="#9dc3f3"/>
          <path id="Path_1102" data-name="Path 1102" d="M374.527,187.868h-5.975l.526,1.68-.526,1.2h5.975Z" transform="translate(-227.441 -86.042)" fill="#e3f0ff"/>
          <rect id="Rectangle_611" data-name="Rectangle 611" width="10.851" height="4.222" transform="translate(133.766 80.393)" fill="#fff"/>
          <rect id="Rectangle_612" data-name="Rectangle 612" width="37.706" height="31.091" transform="translate(79.843 109.377) rotate(180)" fill="#c3dafc"/>
          <rect id="Rectangle_613" data-name="Rectangle 613" width="37.706" height="31.091" transform="translate(98.695 109.377) rotate(180)" fill="#d4e4f8"/>
          <path id="Path_1103" data-name="Path 1103" d="M240.787,186.6h5.975l-.526-1.68.526-1.2h-5.975Z" transform="translate(-198.629 -85.105)" fill="#9dc3f3"/>
          <path id="Path_1104" data-name="Path 1104" d="M265.1,169.057h5.975l-.526-1.682.526-1.2H265.1Z" transform="translate(-204.112 -81.15)" fill="#e3f0ff"/>
          <path id="Path_1105" data-name="Path 1105" d="M263.361,166.173h-5.975l.526,1.682-.526,1.2h5.975Z" transform="translate(-202.373 -81.15)" fill="#9dc3f3"/>
          <path id="Path_1106" data-name="Path 1106" d="M312.048,187.868h-5.975l.526,1.68-.526,1.2h5.975Z" transform="translate(-213.352 -86.042)" fill="#e3f0ff"/>
          <path id="Path_1107" data-name="Path 1107" d="M312.048,165.644h-5.975l.526,1.682-.526,1.2h5.975Z" transform="translate(-213.352 -81.03)" fill="#e3f0ff"/>
          <rect id="Rectangle_614" data-name="Rectangle 614" width="17.686" height="6.88" transform="translate(64.798 99.166)" fill="#fff"/>
          <rect id="Rectangle_615" data-name="Rectangle 615" width="32.591" height="26.872" transform="translate(123.116 175.789) rotate(180)" fill="#c3dafc"/>
          <rect id="Rectangle_616" data-name="Rectangle 616" width="32.591" height="26.872" transform="translate(139.41 175.789) rotate(180)" fill="#d4e4f8"/>
          <path id="Path_1108" data-name="Path 1108" d="M303.261,273.842h5.164l-.455-1.453.455-1.04h-5.164Z" transform="translate(-212.717 -104.867)" fill="#9dc3f3"/>
          <path id="Path_1109" data-name="Path 1109" d="M324.278,258.682h5.163l-.454-1.454.454-1.038h-5.163Z" transform="translate(-217.457 -101.449)" fill="#e3f0ff"/>
          <path id="Path_1110" data-name="Path 1110" d="M322.774,256.19h-5.164l.455,1.453-.455,1.04h5.164Z" transform="translate(-215.953 -101.449)" fill="#9dc3f3"/>
          <path id="Path_1111" data-name="Path 1111" d="M364.854,274.939H359.69l.454,1.454-.454,1.038h5.164Z" transform="translate(-225.442 -105.677)" fill="#e3f0ff"/>
          <rect id="Rectangle_617" data-name="Rectangle 617" width="9.378" height="3.648" transform="translate(127.899 150.738)" fill="#fff"/>
          <rect id="Rectangle_618" data-name="Rectangle 618" width="37.706" height="31.091" transform="translate(66.335 175.789) rotate(180)" fill="#c3dafc"/>
          <rect id="Rectangle_619" data-name="Rectangle 619" width="37.706" height="31.091" transform="translate(85.189 175.789) rotate(180)" fill="#d4e4f8"/>
          <path id="Path_1112" data-name="Path 1112" d="M223.346,272.347h5.976l-.528-1.682.528-1.2h-5.976Z" transform="translate(-194.696 -104.442)" fill="#2a4e96"/>
          <path id="Path_1113" data-name="Path 1113" d="M247.662,254.806h5.975l-.526-1.682.526-1.2h-5.975Z" transform="translate(-200.18 -100.487)" fill="#618dc1"/>
          <path id="Path_1114" data-name="Path 1114" d="M245.922,251.924h-5.976l.528,1.68-.528,1.2h5.976Z" transform="translate(-198.44 -100.487)" fill="#2a4e96"/>
          <path id="Path_1115" data-name="Path 1115" d="M294.608,273.617h-5.975l.528,1.68-.528,1.2h5.975Z" transform="translate(-209.419 -105.379)" fill="#618dc1"/>
          <rect id="Rectangle_620" data-name="Rectangle 620" width="10.851" height="4.222" transform="translate(71.87 146.806)" fill="#fff"/>
          <rect id="Rectangle_621" data-name="Rectangle 621" width="28.826" height="23.77" transform="translate(68.068 78.141) rotate(180)" fill="#c3dafc"/>
          <rect id="Rectangle_622" data-name="Rectangle 622" width="28.826" height="23.77" transform="translate(82.481 78.141) rotate(180)" fill="#d4e4f8"/>
          <path id="Path_1116" data-name="Path 1116" d="M237.045,148.863h4.568l-.4-1.285.4-.918h-4.568Z" transform="translate(-197.785 -76.75)" fill="#9dc3f3"/>
          <path id="Path_1117" data-name="Path 1117" d="M255.632,135.454H260.2l-.4-1.285.4-.918h-4.568Z" transform="translate(-201.977 -73.726)" fill="#e3f0ff"/>
          <path id="Path_1118" data-name="Path 1118" d="M254.3,133.251h-4.568l.4,1.285-.4.918H254.3Z" transform="translate(-200.647 -73.726)" fill="#9dc3f3"/>
          <path id="Path_1119" data-name="Path 1119" d="M291.523,149.835h-4.568l.4,1.285-.4.92h4.568Z" transform="translate(-209.04 -77.465)" fill="#e3f0ff"/>
          <rect id="Rectangle_623" data-name="Rectangle 623" width="8.296" height="3.226" transform="translate(72.299 55.985)" fill="#fff"/>
          <rect id="Rectangle_624" data-name="Rectangle 624" width="28.826" height="23.77" transform="translate(119.573 78.141) rotate(180)" fill="#c3dafc"/>
          <rect id="Rectangle_625" data-name="Rectangle 625" width="28.826" height="23.77" transform="translate(133.986 78.141) rotate(180)" fill="#d4e4f8"/>
          <path id="Path_1120" data-name="Path 1120" d="M303.544,148.863h4.568l-.4-1.285.4-.918h-4.568Z" transform="translate(-212.781 -76.75)" fill="#9dc3f3"/>
          <path id="Path_1121" data-name="Path 1121" d="M322.131,135.454H326.7l-.4-1.285.4-.918h-4.568Z" transform="translate(-216.973 -73.726)" fill="#e3f0ff"/>
          <path id="Path_1122" data-name="Path 1122" d="M320.8,133.251h-4.568l.4,1.285-.4.918H320.8Z" transform="translate(-215.643 -73.726)" fill="#9dc3f3"/>
          <path id="Path_1123" data-name="Path 1123" d="M358.023,149.835h-4.568l.4,1.285-.4.92h4.568Z" transform="translate(-224.036 -77.465)" fill="#e3f0ff"/>
          <rect id="Rectangle_626" data-name="Rectangle 626" width="8.296" height="3.226" transform="translate(123.802 55.985)" fill="#fff"/>
        </g>
        <path id="Path_1124" data-name="Path 1124" d="M589.78,235.755l-.718-.212c1.9-6.441-1.543-13.144-7.665-14.946l-15.423-4.538a6.168,6.168,0,0,1-3.975-7.75c3.177-10.791-2.588-22.027-12.846-25.046l.222-.755c10.654,3.136,16.639,14.805,13.34,26.013a5.4,5.4,0,0,0,3.479,6.783l15.423,4.538C588.135,221.76,591.8,228.9,589.78,235.755Z" transform="translate(-123.835 -41.163)" fill="#2b478b"/>
        <path id="Path_1125" data-name="Path 1125" d="M587.769,242.59l-.717-.212c1.9-6.441-1.544-13.146-7.666-14.948l-15.423-4.538a6.166,6.166,0,0,1-3.973-7.748c3.177-10.791-2.588-22.028-12.848-25.047l.222-.754c10.655,3.135,16.639,14.8,13.342,26.013a5.4,5.4,0,0,0,3.479,6.783l15.421,4.538C586.125,228.595,589.786,235.732,587.769,242.59Z" transform="translate(-123.382 -42.704)" fill="#2b478b"/>
        <rect id="Rectangle_627" data-name="Rectangle 627" width="32.469" height="26.774" transform="translate(351.801 121.695)" fill="#ed823a"/>
        <rect id="Rectangle_628" data-name="Rectangle 628" width="32.469" height="26.774" transform="translate(335.566 121.695)" fill="#ff9e55"/>
        <path id="Path_1126" data-name="Path 1126" d="M494.634,182.215h-5.145l.452-1.449-.452-1.034h5.145Z" transform="translate(-110.381 -40.537)" fill="#dd732c"/>
        <path id="Path_1127" data-name="Path 1127" d="M473.695,167.111H468.55l.454-1.447-.454-1.034h5.145Z" transform="translate(-105.659 -37.132)" fill="#ffb27d"/>
        <path id="Path_1128" data-name="Path 1128" d="M475.193,164.63h5.145l-.452,1.447.452,1.034h-5.145Z" transform="translate(-107.157 -37.132)" fill="#dd732c"/>
        <path id="Path_1129" data-name="Path 1129" d="M433.27,183.31h5.145l-.454,1.447.454,1.034H433.27Z" transform="translate(-97.703 -41.344)" fill="#ffb27d"/>
        <rect id="Rectangle_629" data-name="Rectangle 629" width="9.344" height="3.636" transform="translate(347.035 127.145) rotate(180)" fill="#fff"/>
        <path id="Path_1130" data-name="Path 1130" d="M491.193,61.588c-4.656,0-9.531-.74-12.247-2.295-4.31-2.487-9.776-1.433-9.831-1.423l-.134-.66c.235-.048,5.768-1.119,10.3,1.5,4.469,2.579,15.575,2.808,20.6,1.1,4.951-1.686,11.527-3.5,14.261-3.5v.674c-2.658,0-9.143,1.8-14.044,3.465A29.9,29.9,0,0,1,491.193,61.588Z" transform="translate(-105.756 -12.704)" fill="#2b478b"/>
        <rect id="Rectangle_630" data-name="Rectangle 630" width="2.13" height="13.891" transform="translate(356.545 97.016)" fill="#2b478b"/>
        <rect id="Rectangle_631" data-name="Rectangle 631" width="2.13" height="13.891" transform="translate(360.762 97.016)" fill="#2b478b"/>
        <path id="Path_1131" data-name="Path 1131" d="M491.193,59.665c-4.656,0-9.531-.738-12.247-2.295-4.31-2.487-9.776-1.431-9.831-1.412l-.134-.662c.235-.046,5.768-1.117,10.3,1.5,4.469,2.579,15.575,2.808,20.6,1.1,4.951-1.687,11.527-3.5,14.261-3.5v.674c-2.658,0-9.143,1.8-14.044,3.465A30.335,30.335,0,0,1,491.193,59.665Z" transform="translate(-105.756 -12.273)" fill="#2b478b"/>
        <path id="Path_1132" data-name="Path 1132" d="M553.653,138.94h-.883v-.674h.883a7.436,7.436,0,0,0,7.427-7.427V53.961a7.434,7.434,0,0,0-7.427-7.425H547.1v-.674h6.555a8.119,8.119,0,0,1,8.1,8.1v76.877A8.119,8.119,0,0,1,553.653,138.94Z" transform="translate(-123.372 -10.349)" fill="#2b478b"/>
        <path id="Path_1133" data-name="Path 1133" d="M552.952,133.474V132.8a5.172,5.172,0,0,0,5.166-5.166V56.173a5.016,5.016,0,0,0-5.009-5.009h-5.2V50.49h5.2a5.69,5.69,0,0,1,5.683,5.683v71.461A5.849,5.849,0,0,1,552.952,133.474Z" transform="translate(-123.556 -11.393)" fill="#2b478b"/>
        <rect id="Rectangle_632" data-name="Rectangle 632" width="27.875" height="50.579" rx="6.119" transform="translate(345.484 49.523)" fill="#aec3ff"/>
        <circle id="Ellipse_45" data-name="Ellipse 45" cx="2.425" cy="2.425" r="2.425" transform="translate(350.7 54.294)" fill="#dde7fe"/>
        <path id="Path_1134" data-name="Path 1134" d="M452.809,117.193a2.427,2.427,0,1,1,2.426,2.425,2.427,2.427,0,0,1-2.426-2.425Z" transform="translate(-102.11 -25.887)" fill="#dde7fe"/>
        <path id="Path_1135" data-name="Path 1135" d="M469.067,72.535a2.427,2.427,0,1,1,2.422,2.425A2.427,2.427,0,0,1,469.067,72.535Z" transform="translate(-105.776 -15.816)" fill="#dde7fe"/>
        <path id="Path_1136" data-name="Path 1136" d="M469.067,117.193a2.427,2.427,0,1,1,2.422,2.425,2.427,2.427,0,0,1-2.422-2.425Z" transform="translate(-105.776 -25.887)" fill="#dde7fe"/>
        <path id="Path_1137" data-name="Path 1137" d="M471.7,144.624a3.531,3.531,0,0,1-.318,1.446h-19.05a3.5,3.5,0,0,1-.319-1.446c0-3.158,4.413-5.717,9.845-5.717S471.7,141.461,471.7,144.624Z" transform="translate(-101.931 -31.331)" fill="#ff9e55"/>
        <path id="Path_1138" data-name="Path 1138" d="M483.4,152.5v25.891a6.319,6.319,0,0,1-2.734,5.2l-7.9,5.445a1.246,1.246,0,0,1-1.731-.318h0a1.236,1.236,0,0,1,.318-1.73l7.9-5.45a3.823,3.823,0,0,0,1.654-3.149V152.5a5.071,5.071,0,0,0-5.071-5.071H438.275A5.071,5.071,0,0,0,433.2,152.5v25.743a3.8,3.8,0,0,0,1.8,3.244L443.83,187a1.235,1.235,0,0,1,.4,1.714h0a1.244,1.244,0,0,1-1.716.4l-8.825-5.514a6.282,6.282,0,0,1-2.967-5.357V152.5a7.561,7.561,0,0,1,7.558-7.561H475.84A7.561,7.561,0,0,1,483.4,152.5Z" transform="translate(-97.128 -32.691)" fill="#2b478b"/>
        <rect id="Rectangle_633" data-name="Rectangle 633" width="51.763" height="1.559" transform="translate(358.667 33.954)" fill="#2b478b"/>
        <rect id="Rectangle_634" data-name="Rectangle 634" width="51.763" height="1.559" transform="translate(358.667 38.319)" fill="#2b478b"/>
        <path id="Path_1139" data-name="Path 1139" d="M468.242,58.478H452.809V47.648a7.967,7.967,0,0,1,7.967-7.967h0a7.968,7.968,0,0,1,7.969,7.969V57.975A.5.5,0,0,1,468.242,58.478Z" transform="translate(-102.11 -8.955)" fill="#ff9e55"/>
        <rect id="Rectangle_635" data-name="Rectangle 635" width="21.269" height="153.802" rx="8.651" transform="translate(406.36 30.725)" fill="#aec3ff"/>
        <circle id="Ellipse_46" data-name="Ellipse 46" cx="1.237" cy="1.237" r="1.237" transform="translate(415.758 36.959)" fill="#2b478b"/>
        <rect id="Rectangle_636" data-name="Rectangle 636" width="25.577" height="102.594" rx="4.227" transform="translate(403.821 52.396)" fill="#98b5f4"/>
        <path id="Path_1140" data-name="Path 1140" d="M524.564,226.01h20.728a3.168,3.168,0,0,1,3.168,3.168v14.1h-23.9a3.168,3.168,0,0,1-3.168-3.168V229.179A3.168,3.168,0,0,1,524.564,226.01Z" transform="translate(-117.576 -50.973)" fill="#98b5f4"/>
        <circle id="Ellipse_47" data-name="Ellipse 47" cx="4.711" cy="4.711" r="4.711" transform="translate(353.844 42.922) rotate(-88.7)" fill="#ff9e55"/>
        <path id="Path_1141" data-name="Path 1141" d="M461.682,52.928a4.857,4.857,0,1,1,4.857-4.857A4.857,4.857,0,0,1,461.682,52.928Zm0-9.423a4.566,4.566,0,1,0,4.575,4.566A4.566,4.566,0,0,0,461.682,43.5Z" transform="translate(-103.015 -9.752)" fill="#2b478b"/>
        <circle id="Ellipse_48" data-name="Ellipse 48" cx="2.875" cy="2.875" r="2.875" transform="translate(355.194 40.451) rotate(-76.72)" fill="#ed823a"/>
        <rect id="Rectangle_637" data-name="Rectangle 637" width="20.243" height="16.692" transform="translate(488.91 183.129) rotate(155.56)" fill="#c3dafc"/>
        <rect id="Rectangle_638" data-name="Rectangle 638" width="20.243" height="16.692" transform="translate(498.124 178.938) rotate(155.56)" fill="#d4e4f8"/>
        <path id="Path_1142" data-name="Path 1142" d="M613.021,227.52l2.921-1.327-.632-.7-.009-.7-2.919,1.327Z" transform="translate(-138.093 -50.697)" fill="#618dc1"/>
        <path id="Path_1143" data-name="Path 1143" d="M611.531,226.5l-2.921,1.327.63.7.011.7,2.919-1.327Z" transform="translate(-137.243 -51.083)" fill="#2a4e96"/>
        <path id="Path_1144" data-name="Path 1144" d="M640.146,226.286l-2.921,1.327.632.7.009.7,2.921-1.327Z" transform="translate(-143.696 -51.035)" fill="#618dc1"/>
        <rect id="Rectangle_639" data-name="Rectangle 639" width="5.825" height="2.266" transform="translate(485.182 167.729) rotate(-24.44)" fill="#fff"/>
        <path id="Path_1145" data-name="Path 1145" d="M640.414,276.874c-.069.215-.143.431-.215.648q-.937,2.755-2.067,5.579-.155.4-.319.791-1.373,3.377-3.038,6.884H609.994l-1.412-13.25-.069-.648-.055-.507-3.53-32.881-.028-.254,1.864-.831L616,238.27l9.243-4.13,9.24-4.127,6.866-3.066c.115.323.226.646.335.973.1.291.2.586.288.883C646.2,241.985,646.715,257.953,640.414,276.874Z" transform="translate(-136.406 -51.184)" fill="#2b478b"/>
        <path id="Path_1146" data-name="Path 1146" d="M641.246,277.415c-.069.215-.143.431-.215.648H611.881l-.065-.648-.049-.507-3.177-32.222,1.47-.658,32.75-14.683C647.035,242.526,647.547,258.494,641.246,277.415Z" transform="translate(-137.238 -51.725)" fill="#d2e0ff"/>
        <path id="Path_1147" data-name="Path 1147" d="M535.256,282.338H285.811a17.018,17.018,0,0,1-17.018-17.018h0A17.018,17.018,0,0,1,285.809,248.3H535.256a17.017,17.017,0,0,1,17.017,17.017h0a17.017,17.017,0,0,1-17.018,17.018Z" transform="translate(-60.613 -56)" fill="#aec3ff"/>
        <path id="Path_1148" data-name="Path 1148" d="M617.063,265.325a17.018,17.018,0,0,1-17.017,17.018h-42.3a1.641,1.641,0,0,1-1.641-1.641V249.944a1.641,1.641,0,0,1,1.641-1.641h42.3a17.017,17.017,0,0,1,17.017,17.022Z" transform="translate(-125.404 -56)" fill="#c5d7ff"/>
        <path id="Path_1149" data-name="Path 1149" d="M569.079,291.411c-.069.215-.143.431-.215.648q-.937,2.755-2.067,5.579-.155.4-.319.791-1.373,3.377-3.038,6.884h0l-27,.011-247.875.115V291.411Z" transform="translate(-65.071 -65.721)" fill="#c5d7ff"/>
        <path id="Path_1150" data-name="Path 1150" d="M379.053,264.626l-1.919-.883a.469.469,0,0,1-.268-.409,6.271,6.271,0,0,0-.046-.678,7.737,7.737,0,0,0-.228-1.236.457.457,0,0,1,.177-.492l1.765-1.341a.455.455,0,0,0,.109-.607l-1.084-1.708a.448.448,0,0,0-.575-.162l-1.825.9a.457.457,0,0,1-.53-.1,8.133,8.133,0,0,0-2.058-1.551.464.464,0,0,1-.229-.519l.3-1.2a.469.469,0,0,0-.293-.547l-1.887-.681a.354.354,0,0,0-.118-.028.447.447,0,0,0-.452.261l-.669,1.433-.161.353a7.772,7.772,0,0,0-1.142.042,8.066,8.066,0,0,0-1.5.305.452.452,0,0,1-.492-.161L364.85,254.2a.466.466,0,0,0-.623-.109l-1.3.824-.374.238a.471.471,0,0,0-.177.609l.748,1.528a.45.45,0,0,1-.085.53,8.409,8.409,0,0,0-1.08,1.357c-.03.041-.055.081-.079.122a.139.139,0,0,1-.028.041.457.457,0,0,1-.482.177l-1.956-.478a.427.427,0,0,0-.065-.012.468.468,0,0,0-.48.3l-.683,1.882a.466.466,0,0,0,.242.582l2,.928a.447.447,0,0,1,.263.438,8.34,8.34,0,0,0,.042,1.253c.025.226.058.447.1.665a.482.482,0,0,1-.177.468l-1.723,1.274a.452.452,0,0,0-.109.6l1.073,1.689a.475.475,0,0,0,.612.176l1.444-.706a.464.464,0,0,1,.565.118,8.254,8.254,0,0,0,1.887,1.65.462.462,0,0,1,.2.5l-.432,1.765a.484.484,0,0,0,.3.563l1.874.683a.462.462,0,0,0,.574-.24l.039-.085.775-1.664a.466.466,0,0,1,.461-.27h0a8.34,8.34,0,0,0,1.437-.028c.259-.028.512-.071.766-.12a.457.457,0,0,1,.461.177l1.094,1.44a.477.477,0,0,0,.634.115l1.68-1.059a.484.484,0,0,0,.12-.111.471.471,0,0,0,.051-.487l-.6-1.221a.48.48,0,0,1,.032-.462.642.642,0,0,1,.086-.1,8.094,8.094,0,0,0,2.009-2.508A.461.461,0,0,1,376.4,267a.388.388,0,0,1,.079.012l1.589.388a.464.464,0,0,0,.547-.291l.016-.044.669-1.832A.477.477,0,0,0,379.053,264.626Zm-6.218.607a4.434,4.434,0,0,1-1.183,1.638,2.732,2.732,0,0,1-.342.256,5.072,5.072,0,0,1-1.574.658,4.381,4.381,0,0,1-5.277-5.046,5.268,5.268,0,0,1,.259-.98,4.281,4.281,0,0,1,1.451-1.822c.06-.039.122-.076.177-.111a4.434,4.434,0,0,1,6.486,5.406Z" transform="translate(-80.765 -57.144)" fill="#98b5f4"/>
        <path id="Path_1151" data-name="Path 1151" d="M397.518,276.212l-1.382-.641a.335.335,0,0,1-.191-.295,4.551,4.551,0,0,0-.034-.487,5.472,5.472,0,0,0-.164-.883.339.339,0,0,1,.12-.353l1.266-.966a.327.327,0,0,0,.078-.438l-.778-1.227a.323.323,0,0,0-.413-.118l-1.313.646a.328.328,0,0,1-.385-.069,5.812,5.812,0,0,0-1.481-1.115.334.334,0,0,1-.164-.372l.212-.867a.337.337,0,0,0-.208-.394l-1.357-.491a.256.256,0,0,0-.086-.019.323.323,0,0,0-.327.187l-.478,1.033-.117.251a6.123,6.123,0,0,0-.823.03,5.918,5.918,0,0,0-1.075.219.325.325,0,0,1-.353-.113l-.775-1.02a.341.341,0,0,0-.45-.081l-.939.595-.267.177a.341.341,0,0,0-.127.438l.529,1.1a.323.323,0,0,1-.058.378,5.98,5.98,0,0,0-.778.976c-.021.03-.039.058-.058.09a.09.09,0,0,1-.019.028.328.328,0,0,1-.353.12l-1.412-.342a.381.381,0,0,0-.048-.011.339.339,0,0,0-.353.219l-.492,1.352a.337.337,0,0,0,.176.42l1.44.667a.332.332,0,0,1,.191.316,5.748,5.748,0,0,0,.028.9c.018.161.041.321.072.478a.341.341,0,0,1-.131.335l-1.214.928a.323.323,0,0,0-.079.432l.773,1.214a.337.337,0,0,0,.438.125l1.041-.51a.335.335,0,0,1,.406.085,5.8,5.8,0,0,0,1.354,1.2.335.335,0,0,1,.145.365l-.311,1.264a.353.353,0,0,0,.217.406l1.348.489a.328.328,0,0,0,.411-.176l.028-.06.558-1.2a.335.335,0,0,1,.332-.192h0a5.791,5.791,0,0,0,1.033-.021c.177-.019.367-.051.549-.087a.328.328,0,0,1,.334.124l.787,1.036a.353.353,0,0,0,.455.081l1.209-.768a.372.372,0,0,0,.086-.079.353.353,0,0,0,.035-.353l-.432-.883a.337.337,0,0,1,.023-.332.294.294,0,0,1,.062-.071,5.848,5.848,0,0,0,1.469-1.79.342.342,0,0,1,.371-.177l1.137.279a.334.334,0,0,0,.394-.21l.012-.03.48-1.318A.341.341,0,0,0,397.518,276.212Zm-4.473.436a3.165,3.165,0,0,1-.851,1.179,1.983,1.983,0,0,1-.247.176,3.657,3.657,0,0,1-1.131.475,3.154,3.154,0,0,1-3.8-3.632,3.776,3.776,0,0,1,.187-.706,3.068,3.068,0,0,1,1.05-1.306c.044-.026.088-.053.131-.081A3.191,3.191,0,0,1,393.046,276.648Z" transform="translate(-86.242 -60.47)" fill="#d2e0ff"/>
        <path id="Path_1152" data-name="Path 1152" d="M474.095,264.626l-1.92-.882a.468.468,0,0,1-.267-.41,6.275,6.275,0,0,0-.044-.678,7.942,7.942,0,0,0-.229-1.236.459.459,0,0,1,.166-.492l1.765-1.341a.45.45,0,0,0,.108-.607l-1.08-1.709a.448.448,0,0,0-.575-.162l-1.829.9a.454.454,0,0,1-.529-.1,8.1,8.1,0,0,0-2.058-1.551.47.47,0,0,1-.231-.519l.3-1.2a.469.469,0,0,0-.291-.547l-1.889-.681a.341.341,0,0,0-.117-.028.45.45,0,0,0-.455.261l-.665,1.433-.161.353a7.782,7.782,0,0,0-1.144.042,8.075,8.075,0,0,0-1.495.305.455.455,0,0,1-.494-.161l-1.078-1.412a.464.464,0,0,0-.621-.109l-1.308.824-.372.238a.473.473,0,0,0-.177.609l.748,1.529a.45.45,0,0,1-.083.53,8.118,8.118,0,0,0-1.08,1.357,1.19,1.19,0,0,0-.079.122.185.185,0,0,1-.03.041.457.457,0,0,1-.482.177l-1.954-.478a.419.419,0,0,0-.065-.012.469.469,0,0,0-.482.3l-.683,1.882a.466.466,0,0,0,.242.582l2,.928a.448.448,0,0,1,.263.438,8.1,8.1,0,0,0,.041,1.253c.023.226.058.447.1.665a.478.478,0,0,1-.177.468l-1.691,1.29a.452.452,0,0,0-.108.6l1.073,1.689a.47.47,0,0,0,.609.177l1.447-.706a.464.464,0,0,1,.563.118,8.189,8.189,0,0,0,1.883,1.664.464.464,0,0,1,.2.5l-.432,1.765a.484.484,0,0,0,.3.563l1.874.683a.459.459,0,0,0,.572-.24l.041-.085.775-1.664a.466.466,0,0,1,.459-.27h0a8.332,8.332,0,0,0,1.435-.028c.259-.028.514-.071.764-.12a.459.459,0,0,1,.462.177l1.094,1.44a.477.477,0,0,0,.634.115l1.682-1.059a.6.6,0,0,0,.12-.111.47.47,0,0,0,.048-.487l-.6-1.221a.469.469,0,0,1,.032-.462.445.445,0,0,1,.086-.1,8.119,8.119,0,0,0,2.009-2.508.457.457,0,0,1,.438-.247.391.391,0,0,1,.078.012l1.589.388a.464.464,0,0,0,.547-.291l.014-.044.669-1.832a.475.475,0,0,0-.256-.635Zm-6.218.607a4.448,4.448,0,0,1-1.181,1.638,2.876,2.876,0,0,1-.342.256,5.074,5.074,0,0,1-1.578.658,4.383,4.383,0,0,1-5.277-5.046,5.569,5.569,0,0,1,.261-.98,4.268,4.268,0,0,1,1.46-1.814l.176-.111A4.428,4.428,0,0,1,467.877,265.233Z" transform="translate(-102.194 -57.144)" fill="#98b5f4"/>
        <path id="Path_1153" data-name="Path 1153" d="M492.572,276.212l-1.382-.641a.333.333,0,0,1-.192-.295,4.546,4.546,0,0,0-.032-.487,5.882,5.882,0,0,0-.164-.882.33.33,0,0,1,.12-.353l1.264-.966a.325.325,0,0,0,.078-.438l-.777-1.227a.326.326,0,0,0-.415-.118l-1.315.646a.328.328,0,0,1-.383-.069,5.864,5.864,0,0,0-1.479-1.116.335.335,0,0,1-.176-.372l.215-.867a.339.339,0,0,0-.212-.394l-1.357-.491a.229.229,0,0,0-.083-.019.325.325,0,0,0-.328.187l-.48,1.033-.116.251a6.122,6.122,0,0,0-.821.03,5.892,5.892,0,0,0-1.075.219.325.325,0,0,1-.353-.113l-.777-1.02a.337.337,0,0,0-.447-.081l-.939.595-.27.177a.34.34,0,0,0-.124.438l.529,1.1a.323.323,0,0,1-.06.378,5.969,5.969,0,0,0-.777.976.964.964,0,0,0-.058.09l-.019.028a.334.334,0,0,1-.353.12l-1.4-.342-.049-.011a.339.339,0,0,0-.344.219l-.492,1.352a.335.335,0,0,0,.177.42l1.438.667a.325.325,0,0,1,.191.316,5.748,5.748,0,0,0,.03.9c.016.161.042.321.072.478a.342.342,0,0,1-.129.335l-1.216.928a.323.323,0,0,0-.078.432l.77,1.214a.342.342,0,0,0,.441.125l1.04-.51a.334.334,0,0,1,.4.085,5.845,5.845,0,0,0,1.355,1.2.341.341,0,0,1,.146.365l-.311,1.264a.353.353,0,0,0,.215.406l1.348.489a.327.327,0,0,0,.411-.176l.03-.06.556-1.2a.334.334,0,0,1,.33-.192h0a5.809,5.809,0,0,0,1.034-.021c.187-.019.369-.051.551-.086a.327.327,0,0,1,.332.124l.787,1.036a.353.353,0,0,0,.455.081l1.209-.768a.311.311,0,0,0,.086-.079.341.341,0,0,0,.035-.353l-.432-.883a.342.342,0,0,1,.021-.332.3.3,0,0,1,.064-.071,5.873,5.873,0,0,0,1.446-1.8.323.323,0,0,1,.314-.177.309.309,0,0,1,.056,0l1.138.279a.334.334,0,0,0,.394-.21l.011-.03.478-1.318A.341.341,0,0,0,492.572,276.212Zm-4.474.436a3.177,3.177,0,0,1-.849,1.179A2.274,2.274,0,0,1,487,278a3.666,3.666,0,0,1-1.133.475,3.154,3.154,0,0,1-3.8-3.632,4.066,4.066,0,0,1,.187-.706,3.068,3.068,0,0,1,1.059-1.306l.132-.081a3.186,3.186,0,0,1,4.647,3.9Z" transform="translate(-107.678 -60.47)" fill="#d2e0ff"/>
        <path id="Path_1154" data-name="Path 1154" d="M420.727,263.108l-2.083-.369a.468.468,0,0,1-.364-.327c-.063-.217-.138-.432-.219-.646a8.041,8.041,0,0,0-.53-1.126.461.461,0,0,1,.034-.521l1.359-1.746a.455.455,0,0,0-.053-.616l-1.484-1.375a.45.45,0,0,0-.6-.011l-1.537,1.336a.45.45,0,0,1-.529.044,8.134,8.134,0,0,0-2.388-.971.469.469,0,0,1-.353-.443l-.021-1.236a.471.471,0,0,0-.422-.457l-2-.177a.341.341,0,0,0-.12,0,.452.452,0,0,0-.371.371l-.277,1.557-.065.379a7.977,7.977,0,0,0-2.471,1.011.455.455,0,0,1-.517-.028l-1.412-1.094a.466.466,0,0,0-.63.053l-1.059,1.133-.3.325a.473.473,0,0,0-.012.634l1.115,1.287a.445.445,0,0,1,.055.53,8.118,8.118,0,0,0-.706,1.589c-.019.046-.032.09-.048.138a.2.2,0,0,1-.014.046.466.466,0,0,1-.425.288l-2.012.039a.206.206,0,0,0-.065,0,.475.475,0,0,0-.388.417l-.176,1.993a.466.466,0,0,0,.385.5l2.173.385a.452.452,0,0,1,.365.353,8.585,8.585,0,0,0,.353,1.2c.083.21.177.415.268.618a.475.475,0,0,1-.053.5l-1.3,1.679a.454.454,0,0,0,.049.611l1.47,1.357a.475.475,0,0,0,.634.011l1.216-1.059a.47.47,0,0,1,.575-.03,8.137,8.137,0,0,0,2.247,1.128.463.463,0,0,1,.325.436l.035,1.814a.477.477,0,0,0,.434.464l1.984.176a.461.461,0,0,0,.494-.378l.018-.092.321-1.806a.468.468,0,0,1,.376-.381h0a8.1,8.1,0,0,0,1.382-.394,7.708,7.708,0,0,0,.706-.312.462.462,0,0,1,.491.046l1.428,1.112a.475.475,0,0,0,.641-.049L418,271.561a.527.527,0,0,0,.087-.138.475.475,0,0,0-.078-.485l-.893-1.025a.471.471,0,0,1-.088-.455.606.606,0,0,1,.06-.117,8.155,8.155,0,0,0,1.3-2.937.455.455,0,0,1,.353-.353.579.579,0,0,1,.079,0l1.629-.03a.464.464,0,0,0,.454-.422v-.046l.177-1.942A.473.473,0,0,0,420.727,263.108Zm-5.855,2.18a4.466,4.466,0,0,1-.722,1.885,3.27,3.27,0,0,1-.268.335,5.017,5.017,0,0,1-1.354,1.04,4.384,4.384,0,0,1-6.395-3.53,5.55,5.55,0,0,1,0-1.013,4.256,4.256,0,0,1,.948-2.127c.048-.055.1-.1.146-.157A4.429,4.429,0,0,1,414.873,265.288Z" transform="translate(-90.119 -57.39)" fill="#98b5f4"/>
        <path id="Path_1155" data-name="Path 1155" d="M641.25,291.411c-.069.215-.143.431-.215.648q-.937,2.755-2.067,5.579-.155.4-.319.791-1.373,3.377-3.038,6.884h0l-27,.011V291.411Z" transform="translate(-137.242 -65.721)" fill="#d2e0ff"/>
        <path id="Path_1156" data-name="Path 1156" d="M535.034,282.879H285.588a17.782,17.782,0,1,1,0-35.564H535.034a17.782,17.782,0,1,1,0,35.564ZM285.588,248.842a16.254,16.254,0,0,0,0,32.508H535.034a16.254,16.254,0,1,0,0-32.508Z" transform="translate(-60.391 -55.777)" fill="#2b478b"/>
        <rect id="Rectangle_640" data-name="Rectangle 640" width="19.281" height="18.706" rx="1.78" transform="translate(69.41 103.195)" fill="#c0d8fb"/>
        <rect id="Rectangle_641" data-name="Rectangle 641" width="17.61" height="17.084" rx="1.627" transform="translate(70.244 104.006)" fill="#dfebfd"/>
        <circle id="Ellipse_49" data-name="Ellipse 49" cx="0.399" cy="0.399" r="0.399" transform="translate(78.651 105.313)" fill="#b7d3f3"/>
        <path id="Path_1157" data-name="Path 1157" d="M105.7,137.17a.4.4,0,1,1,.155.544A.4.4,0,0,1,105.7,137.17Z" transform="translate(-23.823 -30.893)" fill="#b7d3f3"/>
        <path id="Path_1158" data-name="Path 1158" d="M109.224,140.044a.4.4,0,1,1-.12.551A.4.4,0,0,1,109.224,140.044Z" transform="translate(-24.589 -31.573)" fill="#b7d3f3"/>
        <path id="Path_1159" data-name="Path 1159" d="M110.926,144.445a.4.4,0,1,1-.283.116A.4.4,0,0,1,110.926,144.445Z" transform="translate(-24.924 -32.58)" fill="#b7d3f3"/>
        <path id="Path_1160" data-name="Path 1160" d="M109.942,149.5a.4.4,0,1,1-.565,0A.4.4,0,0,1,109.942,149.5Z" transform="translate(-24.639 -33.693)" fill="#b7d3f3"/>
        <path id="Path_1161" data-name="Path 1161" d="M106.7,152.745a.4.4,0,1,1-.565,0A.4.4,0,0,1,106.7,152.745Z" transform="translate(-23.908 -34.425)" fill="#b7d3f3"/>
        <path id="Path_1162" data-name="Path 1162" d="M101.551,154.336a.4.4,0,1,1,.116.283A.4.4,0,0,1,101.551,154.336Z" transform="translate(-22.9 -34.721)" fill="#b7d3f3"/>
        <path id="Path_1163" data-name="Path 1163" d="M98.186,137.171a.4.4,0,1,0,.035.3A.4.4,0,0,0,98.186,137.171Z" transform="translate(-21.973 -30.893)" fill="#b7d3f3"/>
        <path id="Path_1164" data-name="Path 1164" d="M94.66,140.044a.4.4,0,1,0,.118.551.4.4,0,0,0-.118-.551Z" transform="translate(-21.207 -31.573)" fill="#b7d3f3"/>
        <circle id="Ellipse_50" data-name="Ellipse 50" cx="0.399" cy="0.399" r="0.399" transform="translate(71.686 111.865)" fill="#b7d3f3"/>
        <path id="Path_1165" data-name="Path 1165" d="M93.942,149.5a.4.4,0,1,0,.282-.118A.4.4,0,0,0,93.942,149.5Z" transform="translate(-21.158 -33.693)" fill="#b7d3f3"/>
        <path id="Path_1166" data-name="Path 1166" d="M97.181,152.745a.4.4,0,1,0,.282-.118.4.4,0,0,0-.282.118Z" transform="translate(-21.888 -34.425)" fill="#b7d3f3"/>
        <circle id="Ellipse_51" data-name="Ellipse 51" cx="0.399" cy="0.399" r="0.399" transform="translate(78.942 111.865)" fill="#b7d3f3"/>
        <rect id="Rectangle_642" data-name="Rectangle 642" width="0.109" height="4.99" transform="translate(79.287 107.276)" fill="#b7d3f3"/>
        <rect id="Rectangle_643" data-name="Rectangle 643" width="3.362" height="0.327" transform="matrix(0.787, -0.617, 0.617, 0.787, 79.188, 112.139)" fill="#b7d3f3"/>
        <rect id="Rectangle_644" data-name="Rectangle 644" width="24.666" height="20.338" transform="translate(272.899 164.782) rotate(180)" fill="#d8702a"/>
        <rect id="Rectangle_645" data-name="Rectangle 645" width="24.666" height="20.338" transform="translate(285.231 164.782) rotate(180)" fill="#ff9e55"/>
        <path id="Path_1167" data-name="Path 1167" d="M320.526,205.56h3.91l-.344-1.1.344-.785h-3.91Z" transform="translate(-72.279 -45.936)" fill="#c15e1b"/>
        <path id="Path_1168" data-name="Path 1168" d="M336.433,194.087h3.908l-.344-1.1.344-.785h-3.908Z" transform="translate(-75.867 -43.349)" fill="#ffb27d"/>
        <path id="Path_1169" data-name="Path 1169" d="M335.3,192.2h-3.91l.344,1.1-.344.787h3.91Z" transform="translate(-74.728 -43.349)" fill="#c15e1b"/>
        <path id="Path_1170" data-name="Path 1170" d="M367.143,206.391h-3.91l.344,1.1-.344.785h3.91Z" transform="translate(-81.91 -46.549)" fill="#ffb27d"/>
        <rect id="Rectangle_646" data-name="Rectangle 646" width="7.097" height="2.762" transform="translate(276.519 145.823)" fill="#fff"/>
        <path id="Path_1171" data-name="Path 1171" d="M352.8,211.34c.6-.388,1.956-1.236,2.016-1.038a.883.883,0,0,1-.2.641,5.7,5.7,0,0,1,3.53.011,1.437,1.437,0,0,1,.92.658.639.639,0,0,1-.259.981c-1,.572-.706.217-2.1,1.059a4,4,0,0,1-4.044.335l-1.327-.275-.081-2.2S352.026,211.441,352.8,211.34Z" transform="translate(-79.208 -47.424)" fill="#ffc299"/>
        <path id="Path_1172" data-name="Path 1172" d="M316.063,180.647c-3.659,2.277-7.448-.817-7.448-.817a17.167,17.167,0,0,0,.545-8.615c-.037-.2,6.382,2.446,6.575,2.489h0v.044l.011.094c.1.863.176,1.721.217,2.522C316.114,178.75,316.063,180.647,316.063,180.647Z" transform="translate(-69.593 -38.614)" fill="#ffb27d"/>
        <path id="Path_1173" data-name="Path 1173" d="M316.4,177.016a9.267,9.267,0,0,1-5.9-2.824c-.228-.277,5.491.145,5.66.159h0v.044a.315.315,0,0,0,.011.094C316.28,175.357,316.35,176.215,316.4,177.016Z" transform="translate(-70.016 -39.267)" fill="#ed975d"/>
        <path id="Path_1174" data-name="Path 1174" d="M316.458,170.881s-6.292,2.782-7.964-1.163-3.611-6.245.335-8.188,5.371-.77,6.25.411S318.051,170.055,316.458,170.881Z" transform="translate(-69.12 -36.199)" fill="#ffb27d"/>
        <path id="Path_1175" data-name="Path 1175" d="M307.907,169.857c-.079.074-1.412.775-5.1-4.06a4.746,4.746,0,0,1-.53-4.308c.676-1.788,3.925-3.707,6.707-4.792a5.648,5.648,0,0,1,3.511-.162,2.185,2.185,0,0,1,1.536,2.709,3.582,3.582,0,0,1-3.493,2.93c-1.108-.034-1.038,2.233-1.018,2.773s-.018,1-1.412.775c-1.2-.192-.521,1.389-.12,2.1a2.1,2.1,0,0,1,.286,1.151,1.3,1.3,0,0,1-.369.886Z" transform="translate(-68.099 -35.26)" fill="#2a4e96"/>
        <path id="Path_1176" data-name="Path 1176" d="M294.722,306.573h-4.06c-.851,0-1.8-.851-2.032-2.409s-1.984-2.411-2.362-3.685,1.559-3.073,1.559-3.073l.325-.417.337-.434,3.212.757s.079.764.129,1.739c.034.706.053,1.516.012,2.229-.094,1.7.477,3.53,1.987,3.865S294.722,306.573,294.722,306.573Z" transform="translate(-64.543 -66.881)" fill="#2c3a64"/>
        <path id="Path_1177" data-name="Path 1177" d="M330.306,307.786H319.555a.9.9,0,0,1-.228-.067c-.718-.353-.492-3.106-.408-3.955.018-.157.03-.249.03-.249s3.779-3.023,4.3-.706c.016.072.035.143.055.214h0c.657,2.166,3.59,3.149,5.284,3.424A1.841,1.841,0,0,1,330.306,307.786Z" transform="translate(-71.894 -68.094)" fill="#2c3a64"/>
        <path id="Path_1178" data-name="Path 1178" d="M326.182,229.156s-.574,7.162-1.248,15.774c-.918,11.7-2.021,26.062-2.129,28.784-.189,4.727-.946,12.286-.946,12.286s-1.8,1.8-5.387,1.038a123.618,123.618,0,0,1-4.116-22.209l-.042-.565c-.851-11.623-2.173-36.1-2.173-36.1Z" transform="translate(-69.938 -51.459)" fill="#ff9e55"/>
        <path id="Path_1179" data-name="Path 1179" d="M323.114,217.464c-1.516.092-17.505-.514-17.509-1.412a137.9,137.9,0,0,0-1.474-14.238q-.226-1.707-.353-3.384a51.518,51.518,0,0,1-.016-8.234c.4-4.7,1.624-7.713,3.659-9.48,0,0,1.915.159,3.68.424a7.923,7.923,0,0,0,4.107-.208l2.441,2.1a9.446,9.446,0,0,1,3.1,4.748S323.25,217.456,323.114,217.464Z" transform="translate(-68.464 -40.759)" fill="#2a4e96"/>
        <path id="Path_1180" data-name="Path 1180" d="M307.229,200.427a14.293,14.293,0,0,0,7.3,7.914c5.616,2.582,2.259-4.907,2.259-4.907Z" transform="translate(-69.281 -45.204)" fill="#1b407a"/>
        <path id="Path_1181" data-name="Path 1181" d="M321.166,189.835l-4.367,1.015-6.012,16.282a5.546,5.546,0,0,1-5.343,3.781v.388l.3,7.766,19.366,1.765s.092-9.708-.254-12.818C324.33,203.4,321.166,189.835,321.166,189.835Z" transform="translate(-68.879 -42.815)" fill="#ff9e55"/>
        <path id="Path_1182" data-name="Path 1182" d="M342.234,207.761c.138-1.271-.514-1.509-.514-1.509s-12.869-2.854-13.96-3.241-10.13-10.557-10.13-10.557-3.454-4.213-6.448-3.428a5.564,5.564,0,0,0-4.1,4.545c-.494,2.259-2.053,2.978-.129,4.263,4.319,2.886,15.488,10.186,17.55,10.88,4.589,1.541,17.121.771,17.121.771A4.026,4.026,0,0,0,342.234,207.761Z" transform="translate(-69.008 -42.611)" fill="#2a4e96"/>
        <path id="Path_1183" data-name="Path 1183" d="M312.973,183.862c-1.017-.944-4.435-3.364-4.435-3.364a2.308,2.308,0,0,1,.773-.771c.434-.092,3.805,2.443,4.926,3.442,1.352,1.2,5.1,4.981,5.1,4.981l-1.839.427S314.168,184.974,312.973,183.862Z" transform="translate(-69.576 -40.536)" fill="#ed823a"/>
        <path id="Path_1184" data-name="Path 1184" d="M315.494,160.151a25.036,25.036,0,0,1-3.435,1.649l-4.376,1.1-5.87,2.159s-1.993-4.289.466-7.65h0c.062-.085.127-.168.194-.251a8.024,8.024,0,0,1,3.013-2.219C312.411,151.814,315.416,159.895,315.494,160.151Z" transform="translate(-67.888 -34.785)" fill="#ff9e55"/>
        <path id="Path_1185" data-name="Path 1185" d="M312.462,162.51l-1.119.353c-1.108-1.024-5.161-4.536-8.765-4.517a.6.6,0,0,1,.046-.09h0c.048-.083.09-.129.157-.254h.037C307.481,158.276,311.516,161.593,312.462,162.51Z" transform="translate(-68.232 -35.637)" fill="#e27830"/>
        <path id="Path_1186" data-name="Path 1186" d="M307.906,165.427a5.043,5.043,0,0,0-.672,1.908c-.051.886-3.9,2.1-4.248,1.709a12.069,12.069,0,0,1-.95-1.458Z" transform="translate(-68.11 -37.311)" fill="#ff9e55"/>
        <path id="Path_1187" data-name="Path 1187" d="M309.615,164.239s7.279-1.168,10.281-3.509a.316.316,0,0,0-.176-.565,14.419,14.419,0,0,0-2.8.176S314.714,162.973,309.615,164.239Z" transform="translate(-69.819 -36.123)" fill="#e27830"/>
        <path id="Path_1188" data-name="Path 1188" d="M324.043,228.68s.372,4.469-1.694,12.855c-1.516,6.153-9.992,23.3-9.992,23.3l-.042-.565c-.851-11.623-2.173-36.1-2.173-36.1Z" transform="translate(-69.938 -51.46)" fill="#ed823a"/>
        <path id="Path_1189" data-name="Path 1189" d="M319.118,227.441s-10.83,27.268-17.634,39.459-8.931,15.594-8.931,15.594-3.9-1.56-4.252-2.623c0,0,2.6-23.535,7.159-29.273,2.575-3.241,5.6-12.969,5.74-16.372s.53-11.552.53-11.552Z" transform="translate(-65.012 -50.221)" fill="#ff9e55"/>
        <g id="Group_61" data-name="Group 61" transform="translate(148.652 15.433)" opacity="0.5">
          <path id="Path_1190" data-name="Path 1190" d="M462.42,21.05q1.456.489,2.9,1.02l-6.216-.028h-1.636l-19.1-.085h-1.641l-19.1-.085h-1.641l-19.113-.1h-1.641l-19.1-.085H374.5l-19.1-.1h-1.64l-19.1-.085h-1.64l-19.1-.1H312.28l-19.1-.083-1.643-.009h0l-19.1-.09H270.8l-19.1-.083-1.641-.009h0l-19.1-.09h-1.641l-19.1-.085h-1.641l-4.631-.019c.409-.339.824-.674,1.244-1h0l3.451.012h0l20.728.079h0l20.735.092h0l20.743.085h0l20.736.092h0l20.734.09h0l20.736.092h0l20.734.092h0l20.736.09h0l20.735.092h0l20.735.09h0l20.735.092h0l20.736.09Z" transform="translate(-194.644 -19.936)" fill="#c3dafc"/>
          <path id="Path_1191" data-name="Path 1191" d="M480.125,33.619c.471.334.936.672,1.387,1.013L191.934,33.361c.256-.339.517-.674.784-1l5.989.025,1.643.009,19.1.083h1.641l19.1.083h0l1.64.009,19.1.083h1.64l19.1.083h0l1.64.009h0l19.1.083h1.641l19.094.085h1.641l19.1.083h1.641l19.1.083h1.64l19.1.083h1.64l19.1.083h1.64l19.1.086h1.638l19.1.085h1.64l19.1.086h1.64Z" transform="translate(-191.934 -22.737)" fill="#c3dafc"/>
          <path id="Path_1192" data-name="Path 1192" d="M201.208,31.482l-.477.741-1.17-.752-3.9-2.494q.3-.334.6-.662l4.942,3.177Z" transform="translate(-192.773 -21.826)" fill="#c3dafc"/>
          <rect id="Rectangle_647" data-name="Rectangle 647" width="0.881" height="18.033" transform="matrix(0.541, -0.841, 0.841, 0.541, 13.52, 0.743)" fill="#c3dafc"/>
          <rect id="Rectangle_648" data-name="Rectangle 648" width="0.881" height="18.033" transform="matrix(0.541, -0.841, 0.841, 0.541, 34.262, 0.835)" fill="#c3dafc"/>
          <rect id="Rectangle_649" data-name="Rectangle 649" width="0.881" height="18.033" transform="matrix(0.541, -0.841, 0.841, 0.541, 55.004, 0.926)" fill="#c3dafc"/>
          <rect id="Rectangle_650" data-name="Rectangle 650" width="0.881" height="18.033" transform="matrix(0.541, -0.841, 0.841, 0.541, 75.744, 1.018)" fill="#c3dafc"/>
          <rect id="Rectangle_651" data-name="Rectangle 651" width="0.88" height="18.008" transform="matrix(0.541, -0.841, 0.841, 0.541, 96.336, 1.437)" fill="#c3dafc"/>
          <rect id="Rectangle_652" data-name="Rectangle 652" width="0.881" height="18.033" transform="matrix(0.541, -0.841, 0.841, 0.541, 117.226, 1.2)" fill="#c3dafc"/>
          <rect id="Rectangle_653" data-name="Rectangle 653" width="0.881" height="18.033" transform="matrix(0.541, -0.841, 0.841, 0.541, 137.967, 1.291)" fill="#c3dafc"/>
          <rect id="Rectangle_654" data-name="Rectangle 654" width="0.881" height="18.033" transform="matrix(0.541, -0.841, 0.841, 0.541, 158.709, 1.383)" fill="#c3dafc"/>
          <rect id="Rectangle_655" data-name="Rectangle 655" width="0.881" height="18.033" transform="matrix(0.541, -0.841, 0.841, 0.541, 179.447, 1.475)" fill="#c3dafc"/>
          <rect id="Rectangle_656" data-name="Rectangle 656" width="0.881" height="18.033" transform="matrix(0.541, -0.841, 0.841, 0.541, 200.19, 1.566)" fill="#c3dafc"/>
          <rect id="Rectangle_657" data-name="Rectangle 657" width="0.881" height="18.033" transform="matrix(0.541, -0.841, 0.841, 0.541, 220.93, 1.658)" fill="#c3dafc"/>
          <rect id="Rectangle_658" data-name="Rectangle 658" width="0.88" height="18.008" transform="matrix(0.541, -0.841, 0.841, 0.541, 241.441, 2.266)" fill="#c3dafc"/>
          <rect id="Rectangle_659" data-name="Rectangle 659" width="0.881" height="18.033" transform="matrix(0.541, -0.841, 0.841, 0.541, 262.412, 1.841)" fill="#c3dafc"/>
        </g>
        <rect id="Rectangle_660" data-name="Rectangle 660" width="33.29" height="27.45" transform="translate(324.89 191.531) rotate(180)" fill="#8db0ff"/>
        <rect id="Rectangle_661" data-name="Rectangle 661" width="33.29" height="27.45" transform="translate(341.534 191.531) rotate(180)" fill="#aec3ff"/>
        <path id="Path_1193" data-name="Path 1193" d="M376.527,237.578H381.8l-.464-1.484.464-1.061h-5.276Z" transform="translate(-84.908 -53.008)" fill="#2a4e96"/>
        <path id="Path_1194" data-name="Path 1194" d="M397.992,222.092h5.276l-.464-1.484.464-1.061h-5.276Z" transform="translate(-89.748 -49.516)" fill="#618dc1"/>
        <path id="Path_1195" data-name="Path 1195" d="M396.456,219.547h-5.274l.464,1.484-.464,1.061h5.274Z" transform="translate(-88.213 -49.516)" fill="#2a4e96"/>
        <path id="Path_1196" data-name="Path 1196" d="M439.441,238.7h-5.276l.464,1.484-.464,1.061h5.276Z" transform="translate(-97.905 -53.834)" fill="#618dc1"/>
        <rect id="Rectangle_662" data-name="Rectangle 662" width="9.579" height="3.728" transform="translate(329.775 165.944)" fill="#fff"/>
        <g id="P297LW" transform="translate(380.048 119.309)">
          <path id="Path_1197" data-name="Path 1197" d="M513.729,189.13s-1.578,8.975-3.3,18.356c-1.874,10.193-3.925,20.859-4.312,20.993-.743.256-.683-1.366-1.193-2.605a59.944,59.944,0,0,1-1.248-14.826c.1-1.3.432-17.3,2.648-19.179S513.729,189.13,513.729,189.13Z" transform="translate(-493.609 -161.965)" fill="#ffb27d"/>
          <path id="Path_1198" data-name="Path 1198" d="M504.506,233.494a5.273,5.273,0,0,1-.177,2.909c-.558,1.438-.676,1.848.353,2.648s2.148,1.942,2.923,1.606.295-6.921.295-6.921Z" transform="translate(-493.681 -171.969)" fill="#ffb27d"/>
          <path id="Path_1199" data-name="Path 1199" d="M503.673,307.507c.958-.584.413-4.942.413-4.942s-4.462-3.571-5.076-.837-4.236,3.961-6.3,4.3a2.219,2.219,0,0,0-2,1.486Z" transform="translate(-490.703 -187.124)" fill="#2a4e96"/>
          <path id="Path_1200" data-name="Path 1200" d="M529.265,307.507c.958-.584.413-4.942.413-4.942s-4.464-3.571-5.076-.837-4.236,3.961-6.3,4.3a2.214,2.214,0,0,0-2,1.486Z" transform="translate(-496.474 -187.124)" fill="#2a4e96"/>
          <path id="Path_1201" data-name="Path 1201" d="M519.329,239.891c-1.589,6.707-3.59,14.374-4.37,18.7-.092.5-.166.955-.222,1.359s-.09.757-.106,1.05c-.417,8.093-6.811,26.594-7.955,27.026-1.765.667-4.559-.752-6.019-1.216a1.253,1.253,0,0,1-.882-1.423c3.177-14.561,5.119-35.4,5.544-47.818.214-6.253.5-10.7.5-10.7s15.6-4.164,15.695,1.1C521.553,230.007,520.566,234.66,519.329,239.891Z" transform="translate(-492.744 -170.122)" fill="#ff9843"/>
          <path id="Path_1202" data-name="Path 1202" d="M522.778,242.047c-1.589,6.707-3.59,14.374-4.37,18.7-.092.5-.57,4.746-.627,5.149l-2.731-31.031,3.872.353Z" transform="translate(-496.194 -172.277)" fill="#e27830"/>
          <path id="Path_1203" data-name="Path 1203" d="M517.089,230.045l5.505,57.508a15.4,15.4,0,0,0,7.755.3s2.139-31.44,1.942-39.127,1.733-20.566-.441-21.985S517.089,230.045,517.089,230.045Z" transform="translate(-496.653 -170.387)" fill="#ff9843"/>
          <path id="Path_1204" data-name="Path 1204" d="M528.878,204.182c.06.657.309,12.915.327,13.375.019.507-1.366,1.518-6.262,2.243a45.536,45.536,0,0,1-6.208.468c-6.105.067-8.439-2.5-8.439-2.5-.417,0,.464-2.976.605-22.354a.882.882,0,0,1-.319-.019,16.642,16.642,0,0,1-4.178-2.6s2.452-6.815,4.766-10.283c.565-.845,2.088-1.511,4.116-1.942.529-.113,1.1-.212,1.7-.295a34.44,34.44,0,0,1,9.2.058c.538.076,1.07.176,1.589.274a15.273,15.273,0,0,1,5.825,2.277c2.157,1.566,3.761,9.586,3.761,9.586a13.405,13.405,0,0,1-6.6,3.428A43.5,43.5,0,0,0,528.878,204.182Z" transform="translate(-493.793 -159.906)" fill="#2a4e96"/>
          <path id="Path_1205" data-name="Path 1205" d="M507.59,219.89l1.864-23.217a2.489,2.489,0,0,1,2.593-2.295l12.7.5a2.024,2.024,0,0,1,1.942,1.915c.155,3.05.738,8.973,2.918,10.625l1.151,16.8-14.189,12.846s-1.611-9.415-3.827-12.03C511.5,223.58,507.59,219.89,507.59,219.89Z" transform="translate(-494.511 -163.148)" fill="#ff9843"/>
          <path id="Path_1206" data-name="Path 1206" d="M531.1,180.705l-1.532,11.863-1.589-.251,1.536-11.886C530.048,180.508,530.579,180.6,531.1,180.705Z" transform="translate(-499.108 -160.004)" fill="#ff9843"/>
          <path id="Path_1207" data-name="Path 1207" d="M517,180.357,515.032,191l-.164.893-.177-.041-1.4-.314,2.01-10.887C515.833,180.538,516.409,180.439,517,180.357Z" transform="translate(-495.797 -159.987)" fill="#ff9843"/>
          <path id="Path_1208" data-name="Path 1208" d="M540.526,208.87s-.953,2.9-13.206,6.9c0,0-.139-3.274.605-3.707,2.294-1.352,7.791-5.387,7.98-6.1.124-.471-1.126-4.035-2.708-7.618,2.905-.323,4.778-.584,6.919-1.731C540.913,202.249,542.01,206.191,540.526,208.87Z" transform="translate(-498.958 -163.654)" fill="#ffb27d"/>
          <path id="Path_1209" data-name="Path 1209" d="M524.437,216.4a5.154,5.154,0,0,0-1.807-.9c-.785-.117-2.107-.616-1.892-.152s1.663,1.2,1.663,1.2Z" transform="translate(-497.471 -167.834)" fill="#ffb27d"/>
          <path id="Path_1210" data-name="Path 1210" d="M520.734,220.261l-3.994.487a.912.912,0,0,1-.985-.642l-2.732-9.06a.914.914,0,0,1,.764-1.17l3.994-.487a.913.913,0,0,1,.985.642l2.732,9.06a.912.912,0,0,1-.764,1.17Z" transform="translate(-495.728 -166.532)" fill="#233862"/>
          <path id="Path_1211" data-name="Path 1211" d="M518.909,220.484l-3.994.487a.913.913,0,0,1-.985-.642l-2.732-9.06a.913.913,0,0,1,.764-1.17l3.993-.487a.913.913,0,0,1,.987.642l2.732,9.06a.914.914,0,0,1-.764,1.17Z" transform="translate(-495.316 -166.582)" fill="#192e4f"/>
          <path id="Path_1212" data-name="Path 1212" d="M516.656,209.431h0a.277.277,0,0,1-.281-.177l-2.674-7.943a.176.176,0,0,1,.141-.231h0a.275.275,0,0,1,.281.176L516.8,209.2a.176.176,0,0,1-.143.231Z" transform="translate(-495.887 -164.66)" fill="#192e4f"/>
          <path id="Path_1213" data-name="Path 1213" d="M525.623,216.472a1.968,1.968,0,0,1-1.216.307,3.4,3.4,0,0,1-1.267-.478c-.508-.353-1.634.111-1.966.334-.932.62-4.075.595-4.075,1.216s1.368,2.365,3.023,2.882,4.9-.551,4.9-.551Z" transform="translate(-496.655 -168.063)" fill="#ffb27d"/>
          <path id="Path_1214" data-name="Path 1214" d="M526.258,178.371c.067,1.844-1.567,2.743-4.017,2.392s-2.5-2.25-2.5-2.25l.06-1.839.069-2.178.063-1.942,5.931.8a7.325,7.325,0,0,0,0,.939h0C525.932,175.462,526.1,177.342,526.258,178.371Z" transform="translate(-497.252 -158.227)" fill="#ffb27d"/>
          <path id="Path_1215" data-name="Path 1215" d="M525.895,174.793h0c-.056.079-1.412,1.927-6.072,2.377l.069-2.178,6-.2Z" transform="translate(-497.27 -158.732)" fill="#ed975d"/>
          <path id="Path_1216" data-name="Path 1216" d="M518.07,172.882s7.3,1.474,8.146-3.083,2.36-7.44-2.263-8.573-5.855.436-6.508,1.889S516.192,172.379,518.07,172.882Z" transform="translate(-496.59 -155.585)" fill="#ffb27d"/>
          <path id="Path_1217" data-name="Path 1217" d="M525.475,170.26s2.538.57,2.778-4.047c.092-1.779.529-8.022-4.547-7.808a10.341,10.341,0,0,0-7.858,3.707c-3.466,3.915,4.97,1,6.093,1.911s.055,2.406,1.338,2.941,2.295.53,2.086,1.712S525.475,170.26,525.475,170.26Z" transform="translate(-496.186 -155.035)" fill="#233862"/>
          <path id="Path_1218" data-name="Path 1218" d="M515.213,161.222a24.975,24.975,0,0,0,3.673,1.015l4.5.311,6.16,1.085s1.2-4.573-1.811-7.447h0c-.074-.072-.154-.145-.235-.214a8,8,0,0,0-3.354-1.652C516.775,152.467,515.254,160.955,515.213,161.222Z" transform="translate(-496.23 -154.056)" fill="#ff9e55"/>
          <path id="Path_1219" data-name="Path 1219" d="M519.848,162.661l1.165.154c.909-1.2,4.277-5.376,7.828-6a.854.854,0,0,0-.06-.079h0c-.06-.074-.109-.113-.2-.222l-.037.009C524,157.61,520.618,161.59,519.848,162.661Z" transform="translate(-497.275 -154.61)" fill="#e27830"/>
          <path id="Path_1220" data-name="Path 1220" d="M525.767,165.019a5.028,5.028,0,0,1,1,1.765c.206.868,4.208,1.38,4.483.932a12.156,12.156,0,0,0,.678-1.6Z" transform="translate(-498.61 -156.528)" fill="#ff9e55"/>
          <path id="Path_1221" data-name="Path 1221" d="M522.59,164.281s-7.371.138-10.74-1.636a.316.316,0,0,1,.069-.586,14.377,14.377,0,0,1,2.79-.314S517.346,163.935,522.59,164.281Z" transform="translate(-495.434 -155.79)" fill="#e27830"/>
        </g>
        <rect id="Rectangle_663" data-name="Rectangle 663" width="78.768" height="57.293" transform="translate(27.388 183.859)" fill="#aec3ff"/>
        <path id="Path_1222" data-name="Path 1222" d="M146.817,153.6h-10.74V274.336h18.212v-59.55l-7.471-30.593Z" transform="translate(-30.686 -34.644)" fill="#aec3ff"/>
        <rect id="Rectangle_664" data-name="Rectangle 664" width="59.541" height="30.595" transform="translate(116.131 118.954)" fill="#d2e0ff"/>
        <rect id="Rectangle_665" data-name="Rectangle 665" width="59.541" height="59.55" transform="translate(123.603 180.142)" fill="#d2e0ff"/>
        <path id="Path_1223" data-name="Path 1223" d="M216.959,223.693H157.416L149.944,193.1h59.541Z" transform="translate(-33.813 -43.552)" fill="#c1d4f7"/>
        <path id="Path_1224" data-name="Path 1224" d="M160.234,200.3h-1.557l-.595-2.217h1.557Z" transform="translate(-35.648 -44.676)" fill="#aec3ff"/>
        <path id="Path_1225" data-name="Path 1225" d="M164.807,200.3H163.25l-.6-2.217h1.557Z" transform="translate(-36.679 -44.676)" fill="#aec3ff"/>
        <path id="Path_1226" data-name="Path 1226" d="M169.379,200.3h-1.557l-.595-2.217h1.557Z" transform="translate(-37.71 -44.676)" fill="#aec3ff"/>
        <path id="Path_1227" data-name="Path 1227" d="M173.953,200.3H172.4l-.6-2.217h1.557Z" transform="translate(-38.741 -44.676)" fill="#aec3ff"/>
        <path id="Path_1228" data-name="Path 1228" d="M178.525,200.3h-1.557l-.595-2.217h1.557Z" transform="translate(-39.773 -44.676)" fill="#aec3ff"/>
        <path id="Path_1229" data-name="Path 1229" d="M183.1,200.3h-1.557l-.6-2.217H182.5Z" transform="translate(-40.803 -44.676)" fill="#aec3ff"/>
        <path id="Path_1230" data-name="Path 1230" d="M161.67,205.645h-1.557l-.595-2.219h1.555Z" transform="translate(-35.972 -45.88)" fill="#aec3ff"/>
        <path id="Path_1231" data-name="Path 1231" d="M166.241,205.645h-1.557l-.595-2.219h1.557Z" transform="translate(-37.003 -45.88)" fill="#aec3ff"/>
        <path id="Path_1232" data-name="Path 1232" d="M170.815,205.645h-1.557l-.595-2.219h1.555Z" transform="translate(-38.034 -45.88)" fill="#aec3ff"/>
        <path id="Path_1233" data-name="Path 1233" d="M175.386,205.645H173.83l-.595-2.219h1.557Z" transform="translate(-39.065 -45.88)" fill="#aec3ff"/>
        <path id="Path_1234" data-name="Path 1234" d="M179.96,205.645H178.4l-.595-2.219h1.557Z" transform="translate(-40.096 -45.88)" fill="#aec3ff"/>
        <path id="Path_1235" data-name="Path 1235" d="M184.534,205.645h-1.559l-.595-2.219h1.557Z" transform="translate(-41.127 -45.88)" fill="#aec3ff"/>
        <path id="Path_1236" data-name="Path 1236" d="M163.155,211.178H161.6L161,208.962h1.557Z" transform="translate(-36.307 -47.129)" fill="#aec3ff"/>
        <path id="Path_1237" data-name="Path 1237" d="M167.729,211.178h-1.557l-.6-2.217h1.557Z" transform="translate(-37.338 -47.129)" fill="#aec3ff"/>
        <path id="Path_1238" data-name="Path 1238" d="M172.3,211.178h-1.557l-.595-2.217h1.557Z" transform="translate(-38.369 -47.129)" fill="#aec3ff"/>
        <path id="Path_1239" data-name="Path 1239" d="M176.874,211.178h-1.557l-.6-2.217h1.557Z" transform="translate(-39.4 -47.129)" fill="#aec3ff"/>
        <path id="Path_1240" data-name="Path 1240" d="M181.446,211.178h-1.557l-.595-2.217h1.557Z" transform="translate(-40.431 -47.129)" fill="#aec3ff"/>
        <path id="Path_1241" data-name="Path 1241" d="M186.019,211.178h-1.557l-.6-2.217h1.557Z" transform="translate(-41.462 -47.129)" fill="#aec3ff"/>
        <path id="Path_1242" data-name="Path 1242" d="M164.591,216.523h-1.557l-.6-2.217H164Z" transform="translate(-36.63 -48.334)" fill="#aec3ff"/>
        <path id="Path_1243" data-name="Path 1243" d="M169.163,216.523h-1.557l-.595-2.217h1.557Z" transform="translate(-37.661 -48.334)" fill="#aec3ff"/>
        <path id="Path_1244" data-name="Path 1244" d="M173.736,216.523h-1.557l-.6-2.217h1.559Z" transform="translate(-38.692 -48.334)" fill="#aec3ff"/>
        <path id="Path_1245" data-name="Path 1245" d="M178.308,216.523h-1.557l-.595-2.217h1.557Z" transform="translate(-39.724 -48.334)" fill="#aec3ff"/>
        <path id="Path_1246" data-name="Path 1246" d="M182.882,216.523h-1.557l-.595-2.217h1.557Z" transform="translate(-40.755 -48.334)" fill="#aec3ff"/>
        <path id="Path_1247" data-name="Path 1247" d="M187.453,216.523H185.9l-.6-2.217h1.557Z" transform="translate(-41.786 -48.334)" fill="#aec3ff"/>
        <path id="Path_1248" data-name="Path 1248" d="M192.057,200.3H190.5l-.595-2.217h1.557Z" transform="translate(-42.824 -44.676)" fill="#aec3ff"/>
        <path id="Path_1249" data-name="Path 1249" d="M196.631,200.3h-1.557l-.595-2.217h1.557Z" transform="translate(-43.855 -44.676)" fill="#aec3ff"/>
        <path id="Path_1250" data-name="Path 1250" d="M201.2,200.3h-1.557l-.595-2.217h1.557Z" transform="translate(-44.886 -44.676)" fill="#aec3ff"/>
        <path id="Path_1251" data-name="Path 1251" d="M205.776,200.3h-1.557l-.595-2.217h1.557Z" transform="translate(-45.918 -44.676)" fill="#aec3ff"/>
        <path id="Path_1252" data-name="Path 1252" d="M210.347,200.3h-1.555l-.6-2.217h1.557Z" transform="translate(-46.949 -44.676)" fill="#aec3ff"/>
        <path id="Path_1253" data-name="Path 1253" d="M214.921,200.3h-1.557l-.595-2.217h1.557Z" transform="translate(-47.98 -44.676)" fill="#aec3ff"/>
        <path id="Path_1254" data-name="Path 1254" d="M193.493,205.645h-1.557l-.595-2.219H192.9Z" transform="translate(-43.148 -45.88)" fill="#aec3ff"/>
        <path id="Path_1255" data-name="Path 1255" d="M198.066,205.645h-1.557l-.6-2.219h1.557Z" transform="translate(-44.179 -45.88)" fill="#aec3ff"/>
        <path id="Path_1256" data-name="Path 1256" d="M202.638,205.645h-1.557l-.595-2.219h1.557Z" transform="translate(-45.21 -45.88)" fill="#aec3ff"/>
        <path id="Path_1257" data-name="Path 1257" d="M207.211,205.645h-1.557l-.6-2.219h1.557Z" transform="translate(-46.241 -45.88)" fill="#aec3ff"/>
        <path id="Path_1258" data-name="Path 1258" d="M211.783,205.645h-1.557l-.595-2.219h1.557Z" transform="translate(-47.272 -45.88)" fill="#aec3ff"/>
        <path id="Path_1259" data-name="Path 1259" d="M216.356,205.645H214.8l-.6-2.219h1.557Z" transform="translate(-48.303 -45.88)" fill="#aec3ff"/>
        <path id="Path_1260" data-name="Path 1260" d="M194.978,211.178h-1.557l-.595-2.217h1.557Z" transform="translate(-43.483 -47.129)" fill="#aec3ff"/>
        <path id="Path_1261" data-name="Path 1261" d="M199.552,211.178H198l-.595-2.217h1.555Z" transform="translate(-44.514 -47.129)" fill="#aec3ff"/>
        <path id="Path_1262" data-name="Path 1262" d="M204.124,211.178h-1.557l-.595-2.217h1.557Z" transform="translate(-45.545 -47.129)" fill="#aec3ff"/>
        <path id="Path_1263" data-name="Path 1263" d="M208.7,211.178h-1.557l-.595-2.217H208.1Z" transform="translate(-46.577 -47.129)" fill="#aec3ff"/>
        <path id="Path_1264" data-name="Path 1264" d="M213.269,211.178h-1.557l-.595-2.217h1.557Z" transform="translate(-47.608 -47.129)" fill="#aec3ff"/>
        <path id="Path_1265" data-name="Path 1265" d="M217.843,211.178h-1.557l-.595-2.217h1.557Z" transform="translate(-48.639 -47.129)" fill="#aec3ff"/>
        <path id="Path_1266" data-name="Path 1266" d="M196.414,216.523h-1.557l-.595-2.217h1.557Z" transform="translate(-43.807 -48.334)" fill="#aec3ff"/>
        <path id="Path_1267" data-name="Path 1267" d="M200.987,216.523h-1.557l-.6-2.217h1.557Z" transform="translate(-44.838 -48.334)" fill="#aec3ff"/>
        <path id="Path_1268" data-name="Path 1268" d="M205.559,216.523H204l-.595-2.217h1.557Z" transform="translate(-45.869 -48.334)" fill="#aec3ff"/>
        <path id="Path_1269" data-name="Path 1269" d="M210.133,216.523h-1.557l-.6-2.217h1.557Z" transform="translate(-46.9 -48.334)" fill="#aec3ff"/>
        <path id="Path_1270" data-name="Path 1270" d="M214.7,216.523h-1.557l-.595-2.217h1.557Z" transform="translate(-47.931 -48.334)" fill="#aec3ff"/>
        <path id="Path_1271" data-name="Path 1271" d="M219.278,216.523h-1.557l-.6-2.217h1.557Z" transform="translate(-48.962 -48.334)" fill="#aec3ff"/>
        <rect id="Rectangle_666" data-name="Rectangle 666" width="22.105" height="17.811" transform="translate(120.703 128.725)" fill="#2b478b"/>
        <rect id="Rectangle_667" data-name="Rectangle 667" width="1.58" height="17.811" transform="translate(141.253 128.725)" fill="#699dee"/>
        <path id="Path_1272" data-name="Path 1272" d="M218.245,295.263H164.994v-21.9h53.251Zm-52.9-.353H217.9v-21.2h-52.55Z" transform="translate(-37.207 -61.651)" fill="#aec3ff"/>
        <path id="Path_1273" data-name="Path 1273" d="M201.422,159.859c0,.664-.378,1.2-.844,1.2s-.844-.529-.844-1.2.378-1.2.844-1.2S201.422,159.19,201.422,159.859Z" transform="translate(-45.041 -35.785)" fill="#fff"/>
        <path id="Path_1274" data-name="Path 1274" d="M206.522,159.859c0,.664-.378,1.2-.844,1.2s-.844-.529-.844-1.2.378-1.2.844-1.2S206.522,159.19,206.522,159.859Z" transform="translate(-46.191 -35.785)" fill="#ff9e55"/>
        <path id="Path_1275" data-name="Path 1275" d="M211.619,159.859c0,.664-.378,1.2-.844,1.2s-.845-.529-.845-1.2.378-1.2.845-1.2S211.619,159.19,211.619,159.859Z" transform="translate(-47.34 -35.785)" fill="#699dee"/>
        <path id="Path_1276" data-name="Path 1276" d="M216.715,159.859c0,.664-.378,1.2-.844,1.2s-.844-.529-.844-1.2.378-1.2.844-1.2S216.715,159.19,216.715,159.859Z" transform="translate(-48.489 -35.785)" fill="#fff"/>
        <path id="Path_1277" data-name="Path 1277" d="M221.811,159.859c0,.664-.378,1.2-.844,1.2s-.844-.529-.844-1.2.378-1.2.844-1.2S221.811,159.19,221.811,159.859Z" transform="translate(-49.638 -35.785)" fill="#ff9e55"/>
        <path id="Path_1278" data-name="Path 1278" d="M217.437,180.71H199.953V165.988h17.484Zm-17.137-.353h16.787v-14.02H200.3Z" transform="translate(-45.09 -37.438)" fill="#aec3ff"/>
        <rect id="Rectangle_668" data-name="Rectangle 668" width="2.699" height="0.5" transform="translate(126.76 130.627)" fill="#e9f3fe"/>
        <rect id="Rectangle_669" data-name="Rectangle 669" width="4.254" height="0.5" transform="translate(121.52 130.627)" fill="#e9f3fe"/>
        <rect id="Rectangle_670" data-name="Rectangle 670" width="6.435" height="0.5" transform="translate(121.52 131.958)" fill="#e9f3fe"/>
        <rect id="Rectangle_671" data-name="Rectangle 671" width="4.268" height="0.5" transform="translate(128.824 131.958)" fill="#e9f3fe"/>
        <rect id="Rectangle_672" data-name="Rectangle 672" width="4.66" height="0.5" transform="translate(130.043 130.627)" fill="#e9f3fe"/>
        <rect id="Rectangle_673" data-name="Rectangle 673" width="4.254" height="0.5" transform="translate(121.52 134.251)" fill="#e9f3fe"/>
        <rect id="Rectangle_674" data-name="Rectangle 674" width="6.435" height="0.5" transform="translate(121.52 135.582)" fill="#e9f3fe"/>
        <rect id="Rectangle_675" data-name="Rectangle 675" width="4.268" height="0.5" transform="translate(128.824 135.582)" fill="#e9f3fe"/>
        <rect id="Rectangle_676" data-name="Rectangle 676" width="2.699" height="0.5" transform="translate(126.76 134.251)" fill="#e9f3fe"/>
        <rect id="Rectangle_677" data-name="Rectangle 677" width="4.66" height="0.5" transform="translate(130.043 134.251)" fill="#e9f3fe"/>
        <rect id="Rectangle_678" data-name="Rectangle 678" width="4.254" height="0.5" transform="translate(121.52 138.242)" fill="#e9f3fe"/>
        <rect id="Rectangle_679" data-name="Rectangle 679" width="6.435" height="0.5" transform="translate(121.52 139.573)" fill="#e9f3fe"/>
        <rect id="Rectangle_680" data-name="Rectangle 680" width="4.268" height="0.5" transform="translate(128.824 139.573)" fill="#e9f3fe"/>
        <rect id="Rectangle_681" data-name="Rectangle 681" width="2.699" height="0.5" transform="translate(126.76 138.242)" fill="#e9f3fe"/>
        <rect id="Rectangle_682" data-name="Rectangle 682" width="4.66" height="0.5" transform="translate(130.043 138.242)" fill="#e9f3fe"/>
        <rect id="Rectangle_683" data-name="Rectangle 683" width="4.254" height="0.5" transform="translate(121.52 142.084)" fill="#e9f3fe"/>
        <rect id="Rectangle_684" data-name="Rectangle 684" width="6.435" height="0.5" transform="translate(121.52 143.415)" fill="#e9f3fe"/>
        <rect id="Rectangle_685" data-name="Rectangle 685" width="4.268" height="0.5" transform="translate(128.824 143.415)" fill="#e9f3fe"/>
        <rect id="Rectangle_686" data-name="Rectangle 686" width="2.699" height="0.5" transform="translate(126.76 142.084)" fill="#e9f3fe"/>
        <rect id="Rectangle_687" data-name="Rectangle 687" width="4.66" height="0.5" transform="translate(130.043 142.084)" fill="#e9f3fe"/>
        <rect id="Rectangle_688" data-name="Rectangle 688" width="98.301" height="3.498" transform="translate(25.303 183.859)" fill="#d2e0ff"/>
        <path id="Path_1279" data-name="Path 1279" d="M61.267,206.307,59.38,228.747s-.2,1.361.814,1.363h8.28s-1.251-.284-1.236-.921c.018-.75,2.2-23.094,2.2-23.094Z" transform="translate(-13.387 -46.482)" fill="#d86713"/>
        <path id="Path_1280" data-name="Path 1280" d="M69.17,229.583c-.328,0-6.647.021-8.267,0-.706,0-.83-.627-.837-1.027a2.217,2.217,0,0,1,.021-.335l.049-.582.125-1.486.111-1.313.141-1.689.12-1.424,1.341-15.945,8.176-.212s-.921,9.355-1.573,16.157c-.074.759-.143,1.486-.207,2.166-.021.215-.041.427-.06.634-.06.644-.116,1.236-.164,1.765-.025.275-.049.53-.071.766-.083.918-.131,1.5-.132,1.615a.982.982,0,0,0,.016.176C68.095,229.566,69.046,229.583,69.17,229.583Z" transform="translate(-13.545 -46.363)" fill="#ee9849"/>
        <path id="Path_1281" data-name="Path 1281" d="M36.185,190.6l4.6,18.466.63,2.529,2.141,8.6H83.329L75.437,190.6Z" transform="translate(-8.16 -42.989)" fill="#f1a34f"/>
        <path id="Path_1282" data-name="Path 1282" d="M36,190.6l-.639.212,7.159,30.025.847-.642Z" transform="translate(-7.974 -42.989)" fill="#ee9849"/>
        <path id="Path_1283" data-name="Path 1283" d="M44.6,229.456H84.134l1.093-.642H45.45Z" transform="translate(-10.058 -51.605)" fill="#d86713"/>
        <rect id="Rectangle_689" data-name="Rectangle 689" width="8.559" height="0.406" transform="translate(56.987 183.636) rotate(180)" fill="#f1a34f"/>
        <path id="Path_1284" data-name="Path 1284" d="M81.382,214.745l-6.455-23.75H36.1V190.6H75.418l6.434,24.089Z" transform="translate(-8.141 -42.989)" fill="#f1a34f"/>
        <path id="Path_1285" data-name="Path 1285" d="M68.413,229.643l-.044.311-8.05,1.627.111-1.313.053-.625Z" transform="translate(-13.602 -51.792)" fill="#d86713"/>
        <path id="Path_1286" data-name="Path 1286" d="M69.17,235.837c-.328,0-6.647.021-8.267,0-.706,0-.83-.627-.837-1.027l8.011-1.507c-.083.918-.131,1.5-.132,1.615a.981.981,0,0,0,.016.177C68.095,235.82,69.046,235.837,69.17,235.837Z" transform="translate(-13.545 -52.618)" fill="#d86713" opacity="0.4"/>
        <path id="Path_1287" data-name="Path 1287" d="M62.547,220.319l-17.474,5.99-2.141-8.6Z" transform="translate(-9.681 -49.101)" fill="#d86713" opacity="0.4"/>
        <path id="Path_1288" data-name="Path 1288" d="M36.185,190.6H75.437l6.368,23.785H41.9Z" transform="translate(-8.16 -42.989)" fill="#aec3ff"/>
        <path id="Path_1289" data-name="Path 1289" d="M80.427,213.728H43.676l-4.164-16.581-.318-1.273-.274-1.084-.637-2.543H74.505l.7,2.543.3,1.084.351,1.273Z" transform="translate(-8.633 -43.36)" fill="#8aa8ed"/>
        <path id="Path_1290" data-name="Path 1290" d="M80,193.7l-1.652.023-.037-.143,1.654-.025Z" transform="translate(-17.658 -43.655)" fill="#f9ddbf"/>
        <path id="Path_1291" data-name="Path 1291" d="M79.661,194.214l-1.19.018-.035-.145,1.188-.016Z" transform="translate(-17.688 -43.771)" fill="#f9ddbf"/>
        <path id="Path_1292" data-name="Path 1292" d="M81.423,194.189l-1.188.018-.037-.145,1.188-.016Z" transform="translate(-18.085 -43.765)" fill="#f9ddbf"/>
        <path id="Path_1293" data-name="Path 1293" d="M82.83,194.171l-.738.011-.037-.143.738-.011Z" transform="translate(-18.504 -43.761)" fill="#f9ddbf"/>
        <path id="Path_1294" data-name="Path 1294" d="M81.893,193.679l-1.02.014-.037-.143,1.02-.014Z" transform="translate(-18.229 -43.65)" fill="#f9ddbf"/>
        <path id="Path_1295" data-name="Path 1295" d="M83.691,193.653l-1.02.014-.037-.143,1.02-.014Z" transform="translate(-18.634 -43.644)" fill="#f9ddbf"/>
        <path id="Path_1296" data-name="Path 1296" d="M85.688,218.036l-1.652.023L84,217.916l1.652-.023Z" transform="translate(-18.942 -49.143)" fill="#f9ddbf"/>
        <path id="Path_1297" data-name="Path 1297" d="M85.352,218.546l-1.188.018-.037-.145,1.188-.016Z" transform="translate(-18.971 -49.258)" fill="#f9ddbf"/>
        <path id="Path_1298" data-name="Path 1298" d="M87.115,218.521l-1.19.018-.035-.143,1.188-.018Z" transform="translate(-19.369 -49.252)" fill="#f9ddbf"/>
        <path id="Path_1299" data-name="Path 1299" d="M88.521,218.5l-.736.009-.037-.143.736-.011Z" transform="translate(-19.787 -49.248)" fill="#f9ddbf"/>
        <path id="Path_1300" data-name="Path 1300" d="M87.584,218.011l-1.02.016-.035-.145,1.018-.014Z" transform="translate(-19.512 -49.137)" fill="#f9ddbf"/>
        <path id="Path_1301" data-name="Path 1301" d="M89.382,217.986,88.364,218l-.037-.143,1.018-.014Z" transform="translate(-19.918 -49.131)" fill="#f9ddbf"/>
        <path id="Path_1302" data-name="Path 1302" d="M46,195.061l-3.874-.009-.078-.325,3.874.009Z" transform="translate(-9.482 -43.919)" fill="#f9ddbf"/>
        <path id="Path_1303" data-name="Path 1303" d="M45.18,196.2l-2.787-.007-.076-.325,2.785.007Z" transform="translate(-9.543 -44.175)" fill="#f9ddbf"/>
        <path id="Path_1304" data-name="Path 1304" d="M49.31,196.208l-2.785-.007-.076-.325,2.785.005Z" transform="translate(-10.474 -44.178)" fill="#f9ddbf"/>
        <path id="Path_1305" data-name="Path 1305" d="M52.608,196.215l-1.726,0-.076-.327,1.726.005Z" transform="translate(-11.457 -44.18)" fill="#f9ddbf"/>
        <path id="Path_1306" data-name="Path 1306" d="M50.446,195.073l-2.39-.007-.078-.325,2.39.005Z" transform="translate(-10.819 -43.922)" fill="#f9ddbf"/>
        <path id="Path_1307" data-name="Path 1307" d="M54.662,195.083l-2.39-.005-.078-.325,2.39.005Z" transform="translate(-11.77 -43.924)" fill="#f9ddbf"/>
        <path id="Path_1308" data-name="Path 1308" d="M46.27,198.76,43,198.751l-.076-.325,3.272.009Z" transform="translate(-9.679 -44.753)" fill="#f9ddbf"/>
        <path id="Path_1309" data-name="Path 1309" d="M49.817,198.77l-1.827-.005-.078-.325,1.829,0Z" transform="translate(-10.804 -44.756)" fill="#f9ddbf"/>
        <path id="Path_1310" data-name="Path 1310" d="M54.223,198.778l-2.8-.007-.076-.325,2.8.007Z" transform="translate(-11.578 -44.757)" fill="#f9ddbf"/>
        <path id="Path_1311" data-name="Path 1311" d="M47.131,199.865l-3.874-.009-.076-.325,3.874.009Z" transform="translate(-9.737 -45.002)" fill="#f9ddbf"/>
        <path id="Path_1312" data-name="Path 1312" d="M46.311,201,43.525,201l-.078-.327,2.785.007Z" transform="translate(-9.798 -45.258)" fill="#f9ddbf"/>
        <path id="Path_1313" data-name="Path 1313" d="M50.442,201.012,47.657,201l-.078-.325,2.785.007Z" transform="translate(-10.729 -45.261)" fill="#f9ddbf"/>
        <path id="Path_1314" data-name="Path 1314" d="M53.739,201.019l-1.726,0-.076-.327,1.726.005Z" transform="translate(-11.712 -45.263)" fill="#f9ddbf"/>
        <path id="Path_1315" data-name="Path 1315" d="M51.577,199.877l-2.39-.007-.076-.325,2.39.005Z" transform="translate(-11.075 -45.005)" fill="#f9ddbf"/>
        <path id="Path_1316" data-name="Path 1316" d="M55.792,199.887l-2.39-.005-.078-.325,2.39.005Z" transform="translate(-12.025 -45.008)" fill="#f9ddbf"/>
        <path id="Path_1317" data-name="Path 1317" d="M47.507,204.02l-3.272-.009-.076-.325,3.272.009Z" transform="translate(-9.958 -45.939)" fill="#163560"/>
        <path id="Path_1318" data-name="Path 1318" d="M51.055,204.027l-1.827,0-.076-.327,1.827.005Z" transform="translate(-11.084 -45.941)" fill="#163560"/>
        <path id="Path_1319" data-name="Path 1319" d="M55.46,204.038l-2.8-.007-.076-.325,2.8.007Z" transform="translate(-11.857 -45.944)" fill="#163560"/>
        <path id="Path_1320" data-name="Path 1320" d="M48.369,205.125l-3.874-.009-.076-.325,3.874.009Z" transform="translate(-10.016 -46.188)" fill="#163560"/>
        <path id="Path_1321" data-name="Path 1321" d="M47.549,206.26l-2.785-.007-.076-.325,2.785.007Z" transform="translate(-10.077 -46.445)" fill="#163560"/>
        <path id="Path_1322" data-name="Path 1322" d="M51.68,206.272l-2.785-.007-.078-.325,2.787.005Z" transform="translate(-11.008 -46.447)" fill="#163560"/>
        <path id="Path_1323" data-name="Path 1323" d="M54.978,206.279l-1.728-.005-.076-.325,1.726.005Z" transform="translate(-11.991 -46.449)" fill="#163560"/>
        <path id="Path_1324" data-name="Path 1324" d="M52.814,205.137l-2.39-.007-.076-.325,2.39.005Z" transform="translate(-11.354 -46.191)" fill="#163560"/>
        <path id="Path_1325" data-name="Path 1325" d="M57.03,205.146l-2.39-.005-.076-.327,2.39.007Z" transform="translate(-12.304 -46.193)" fill="#163560"/>
        <path id="Path_1326" data-name="Path 1326" d="M48.692,209.051l-3.272-.009-.076-.325,3.271.007Z" transform="translate(-10.225 -47.074)" fill="#f9ddbf"/>
        <path id="Path_1327" data-name="Path 1327" d="M52.239,209.059l-1.827-.005-.078-.325,1.829.005Z" transform="translate(-11.351 -47.076)" fill="#f9ddbf"/>
        <path id="Path_1328" data-name="Path 1328" d="M56.645,209.07l-2.8-.007-.078-.325,2.8.007Z" transform="translate(-12.124 -47.078)" fill="#f9ddbf"/>
        <path id="Path_1329" data-name="Path 1329" d="M49.553,210.156l-3.874-.011-.078-.325,3.874.011Z" transform="translate(-10.283 -47.322)" fill="#f9ddbf"/>
        <path id="Path_1330" data-name="Path 1330" d="M48.733,211.292l-2.785-.007-.078-.325,2.785.007Z" transform="translate(-10.344 -47.579)" fill="#f9ddbf"/>
        <path id="Path_1331" data-name="Path 1331" d="M52.865,211.3l-2.787-.007L50,210.969l2.785.007Z" transform="translate(-11.276 -47.581)" fill="#f9ddbf"/>
        <path id="Path_1332" data-name="Path 1332" d="M56.161,211.311l-1.726-.005-.076-.325,1.726,0Z" transform="translate(-12.258 -47.584)" fill="#f9ddbf"/>
        <path id="Path_1333" data-name="Path 1333" d="M54,210.167l-2.39-.005-.076-.325,2.39.005Z" transform="translate(-11.621 -47.326)" fill="#f9ddbf"/>
        <path id="Path_1334" data-name="Path 1334" d="M58.215,210.178l-2.39-.007-.078-.325,2.39.007Z" transform="translate(-12.571 -47.328)" fill="#f9ddbf"/>
        <path id="Path_1335" data-name="Path 1335" d="M49.908,214.218l-3.272-.009-.078-.325,3.272.009Z" transform="translate(-10.499 -48.239)" fill="#163560"/>
        <path id="Path_1336" data-name="Path 1336" d="M53.456,214.226l-1.829,0-.076-.327,1.827.005Z" transform="translate(-11.625 -48.241)" fill="#163560"/>
        <path id="Path_1337" data-name="Path 1337" d="M57.86,214.236l-2.8-.007-.076-.325,2.8.007Z" transform="translate(-12.398 -48.243)" fill="#163560"/>
        <path id="Path_1338" data-name="Path 1338" d="M50.768,215.323l-3.872-.009-.078-.325,3.874.009Z" transform="translate(-10.558 -48.488)" fill="#163560"/>
        <path id="Path_1339" data-name="Path 1339" d="M49.948,216.458l-2.785-.005-.076-.327,2.785.007Z" transform="translate(-10.618 -48.744)" fill="#163560"/>
        <path id="Path_1340" data-name="Path 1340" d="M54.08,216.47l-2.785-.007-.076-.325,2.785.007Z" transform="translate(-11.55 -48.747)" fill="#163560"/>
        <path id="Path_1341" data-name="Path 1341" d="M57.378,216.477l-1.726,0-.078-.327,1.728.005Z" transform="translate(-12.532 -48.749)" fill="#163560"/>
        <path id="Path_1342" data-name="Path 1342" d="M55.216,215.335l-2.39-.007L52.748,215l2.39.005Z" transform="translate(-11.895 -48.491)" fill="#163560"/>
        <path id="Path_1343" data-name="Path 1343" d="M59.43,215.345l-2.39-.005-.076-.325,2.39.005Z" transform="translate(-12.846 -48.494)" fill="#163560"/>
        <path id="Path_1344" data-name="Path 1344" d="M67.942,195.412l-3.874-.009-.076-.325,3.874.009Z" transform="translate(-14.43 -43.998)" fill="#f1a34f"/>
        <path id="Path_1345" data-name="Path 1345" d="M67.122,196.547l-2.785-.005-.078-.327,2.785.007Z" transform="translate(-14.491 -44.254)" fill="#f1a34f"/>
        <path id="Path_1346" data-name="Path 1346" d="M71.253,196.559l-2.785-.007-.078-.325,2.785.007Z" transform="translate(-15.422 -44.257)" fill="#f1a34f"/>
        <path id="Path_1347" data-name="Path 1347" d="M74.55,196.566l-1.726,0-.076-.327,1.726.005Z" transform="translate(-16.405 -44.259)" fill="#f1a34f"/>
        <path id="Path_1348" data-name="Path 1348" d="M72.388,195.424,70,195.417l-.076-.325,2.39.005Z" transform="translate(-15.768 -44.001)" fill="#f1a34f"/>
        <path id="Path_1349" data-name="Path 1349" d="M76.6,195.434l-2.39-.005-.078-.325,2.39.005Z" transform="translate(-16.718 -44.004)" fill="#f1a34f"/>
        <path id="Path_1350" data-name="Path 1350" d="M68.211,199.111l-3.272-.007-.076-.327,3.272.009Z" transform="translate(-14.627 -44.832)" fill="#f1a34f"/>
        <path id="Path_1351" data-name="Path 1351" d="M71.758,199.119l-1.827,0-.078-.327,1.829.005Z" transform="translate(-15.752 -44.834)" fill="#f1a34f"/>
        <path id="Path_1352" data-name="Path 1352" d="M76.164,199.129l-2.8-.007-.076-.325,2.8.007Z" transform="translate(-16.526 -44.837)" fill="#f1a34f"/>
        <path id="Path_1353" data-name="Path 1353" d="M69.073,200.216l-3.874-.009-.076-.325,3.874.009Z" transform="translate(-14.685 -45.081)" fill="#f1a34f"/>
        <path id="Path_1354" data-name="Path 1354" d="M68.253,201.351l-2.785-.005-.076-.327,2.783.007Z" transform="translate(-14.746 -45.338)" fill="#f1a34f"/>
        <path id="Path_1355" data-name="Path 1355" d="M72.384,201.363l-2.785-.007-.078-.325,2.787.007Z" transform="translate(-15.677 -45.34)" fill="#f1a34f"/>
        <path id="Path_1356" data-name="Path 1356" d="M75.682,201.37l-1.726,0-.078-.327,1.726.005Z" transform="translate(-16.66 -45.342)" fill="#f1a34f"/>
        <path id="Path_1357" data-name="Path 1357" d="M73.518,200.228l-2.39-.007-.076-.325,2.39.005Z" transform="translate(-16.022 -45.084)" fill="#f1a34f"/>
        <path id="Path_1358" data-name="Path 1358" d="M77.734,200.238l-2.39-.005-.076-.325,2.39.005Z" transform="translate(-16.973 -45.087)" fill="#f1a34f"/>
        <path id="Path_1359" data-name="Path 1359" d="M69.449,204.37l-3.272-.009-.076-.325,3.272.009Z" transform="translate(-14.906 -46.018)" fill="#f9ddbf"/>
        <path id="Path_1360" data-name="Path 1360" d="M73,204.378l-1.829,0-.076-.327,1.827.005Z" transform="translate(-16.032 -46.021)" fill="#f9ddbf"/>
        <path id="Path_1361" data-name="Path 1361" d="M77.4,204.389l-2.8-.007-.076-.325,2.8.007Z" transform="translate(-16.805 -46.023)" fill="#f9ddbf"/>
        <path id="Path_1362" data-name="Path 1362" d="M70.31,205.476l-3.874-.009-.076-.325,3.874.009Z" transform="translate(-14.964 -46.267)" fill="#f9ddbf"/>
        <path id="Path_1363" data-name="Path 1363" d="M69.49,206.611,66.7,206.6l-.076-.325,2.785.007Z" transform="translate(-15.025 -46.524)" fill="#f9ddbf"/>
        <path id="Path_1364" data-name="Path 1364" d="M73.622,206.623l-2.785-.007-.076-.325,2.785.007Z" transform="translate(-15.957 -46.526)" fill="#f9ddbf"/>
        <path id="Path_1365" data-name="Path 1365" d="M76.92,206.63l-1.726,0-.078-.327,1.726.005Z" transform="translate(-16.939 -46.528)" fill="#f9ddbf"/>
        <path id="Path_1366" data-name="Path 1366" d="M74.757,205.488l-2.392-.007-.076-.325,2.39.005Z" transform="translate(-16.302 -46.27)" fill="#f9ddbf"/>
        <path id="Path_1367" data-name="Path 1367" d="M78.972,205.5l-2.39-.005-.076-.327,2.39.007Z" transform="translate(-17.252 -46.272)" fill="#f9ddbf"/>
        <path id="Path_1368" data-name="Path 1368" d="M70.634,209.4l-3.272-.009-.076-.325,3.272.007Z" transform="translate(-15.173 -47.153)" fill="#f9ddbf"/>
        <path id="Path_1369" data-name="Path 1369" d="M74.181,209.41l-1.827-.005-.078-.325,1.829.005Z" transform="translate(-16.298 -47.155)" fill="#f9ddbf"/>
        <path id="Path_1370" data-name="Path 1370" d="M78.587,209.421l-2.8-.007-.076-.325,2.8.007Z" transform="translate(-17.072 -47.157)" fill="#f9ddbf"/>
        <path id="Path_1371" data-name="Path 1371" d="M71.5,210.507l-3.874-.009-.076-.327,3.874.011Z" transform="translate(-15.232 -47.401)" fill="#f9ddbf"/>
        <path id="Path_1372" data-name="Path 1372" d="M70.675,211.643l-2.785-.007-.078-.325,2.785.007Z" transform="translate(-15.292 -47.658)" fill="#f9ddbf"/>
        <path id="Path_1373" data-name="Path 1373" d="M74.806,211.652l-2.785-.005-.078-.327,2.785.007Z" transform="translate(-16.223 -47.66)" fill="#f9ddbf"/>
        <path id="Path_1374" data-name="Path 1374" d="M78.1,211.662l-1.726-.005-.076-.325,1.726,0Z" transform="translate(-17.206 -47.663)" fill="#f9ddbf"/>
        <path id="Path_1375" data-name="Path 1375" d="M75.941,210.518l-2.39-.005-.076-.325,2.39.005Z" transform="translate(-16.569 -47.405)" fill="#f9ddbf"/>
        <path id="Path_1376" data-name="Path 1376" d="M80.156,210.529l-2.39-.005-.078-.327,2.39.005Z" transform="translate(-17.519 -47.407)" fill="#f9ddbf"/>
        <path id="Path_1377" data-name="Path 1377" d="M71.85,214.569l-3.272-.009-.078-.325,3.272.009Z" transform="translate(-15.447 -48.318)" fill="#f9ddbf"/>
        <path id="Path_1378" data-name="Path 1378" d="M75.4,214.577l-1.829,0-.076-.325,1.829,0Z" transform="translate(-16.573 -48.321)" fill="#f9ddbf"/>
        <path id="Path_1379" data-name="Path 1379" d="M79.8,214.587,77,214.58l-.078-.325,2.8.007Z" transform="translate(-17.346 -48.322)" fill="#f9ddbf"/>
        <path id="Path_1380" data-name="Path 1380" d="M72.712,215.674l-3.874-.009-.076-.325,3.872.009Z" transform="translate(-15.506 -48.567)" fill="#f9ddbf"/>
        <path id="Path_1381" data-name="Path 1381" d="M71.892,216.809,69.1,216.8l-.076-.325,2.785.007Z" transform="translate(-15.566 -48.823)" fill="#f9ddbf"/>
        <path id="Path_1382" data-name="Path 1382" d="M76.021,216.821l-2.785-.007-.076-.325,2.785.007Z" transform="translate(-16.498 -48.826)" fill="#f9ddbf"/>
        <path id="Path_1383" data-name="Path 1383" d="M79.32,216.828l-1.726,0-.076-.327,1.726.005Z" transform="translate(-17.48 -48.828)" fill="#f9ddbf"/>
        <path id="Path_1384" data-name="Path 1384" d="M77.157,215.686l-2.39-.007-.078-.325,2.392.005Z" transform="translate(-16.843 -48.57)" fill="#f9ddbf"/>
        <path id="Path_1385" data-name="Path 1385" d="M81.373,215.695l-2.39-.005-.078-.327,2.39.007Z" transform="translate(-17.793 -48.572)" fill="#f9ddbf"/>
        <path id="Path_1386" data-name="Path 1386" d="M91.973,302.108s-.353,5.519-1.421,5.6c-.143.011-5.417,0-5.417,0l-6.734-.055a2.185,2.185,0,0,1,2.017-1.961c1.97-.339,5.265-1.714,6.464-4.314C88.143,298.64,91.973,302.108,91.973,302.108Z" transform="translate(-17.68 -67.731)" fill="#0e2c4f"/>
        <path id="Path_1387" data-name="Path 1387" d="M113.341,244.012c.258.215,7.115,7.646,6.555,13.352A3.293,3.293,0,0,1,116.6,260.3h-8.354s-8.523,1.523-8.726,3.366-1.942,11.769-5.4,25.881c0,0-2.547.883-4.093.251-2.042-.83-2.339-1.707-2.339-1.707s2.06-31.594,3.685-33.82,18.383-8.825,23.808-9.491S113.341,244.012,113.341,244.012Z" transform="translate(-19.774 -55.032)" fill="#163560"/>
        <path id="Path_1388" data-name="Path 1388" d="M56.013,233.69s-4.847-1.128-6.086,0a6.122,6.122,0,0,0-1.634,2.76h7.72Z" transform="translate(-10.89 -52.592)" fill="#ffb27d"/>
        <path id="Path_1389" data-name="Path 1389" d="M76.736,302.108s-.353,5.519-1.421,5.6c-.143.011-5.417,0-5.417,0l-6.734-.055a2.185,2.185,0,0,1,2.017-1.961c1.97-.339,5.265-1.714,6.464-4.314C72.906,298.64,76.736,302.108,76.736,302.108Z" transform="translate(-14.244 -67.731)" fill="#163560"/>
        <path id="Path_1390" data-name="Path 1390" d="M116.336,244.012a45.807,45.807,0,0,1,2.67,8.693,6.257,6.257,0,0,1-6.111,7.59H93.465s-8.523,1.523-8.726,3.366-1.942,11.769-5.4,25.881a8.164,8.164,0,0,1-4.55-.176,5.673,5.673,0,0,1-1.9-1.541s2.079-31.327,3.707-33.551,18.383-8.825,23.808-9.491S116.336,244.012,116.336,244.012Z" transform="translate(-16.436 -55.032)" fill="#2b478b"/>
        <path id="Path_1391" data-name="Path 1391" d="M112.722,205.349l-3,2.879H104.6c0-.413.012-2.129.03-3.685v-.272c0-.353.009-.68.012-.983.011-.858.019-1.479.019-1.479l1.315-.9,2.925-2,1.589-1.082c0,.026.131,1.442.152,1.647A11.905,11.905,0,0,0,112.722,205.349Z" transform="translate(-23.588 -44.617)" fill="#ffb27d"/>
        <path id="Path_1392" data-name="Path 1392" d="M104.885,206.192c.1-.042,5.637-2.528,6.285-2.314s1.456,2.194,1.456,2.194l-9.755,2.2A4.842,4.842,0,0,1,104.885,206.192Z" transform="translate(-23.198 -45.979)" fill="#163560"/>
        <path id="Path_1393" data-name="Path 1393" d="M118.787,223.436c-1.059-6.509-5.512-11.381-7.413-13.206-1.281-1.927-8.8-3.516-8.8-3.516l-9.761,2.2a12.431,12.431,0,0,0-8.6,5.726c-1.919,3.177-7.413,10.426-11.017,10.652s-14.934,2.423-14.934,2.423v2.785l17.269.475a2.9,2.9,0,0,0,.63-.051c1.486-.279,7.854-1.546,11.023-3.195.507,8.158,1.1,20.615,3.954,22.592,3.013,2.093,24.206,2.372,26.449-.815,1.149-1.633-.259-11.3-2.019-20.614C117.753,227.856,119.23,226.165,118.787,223.436Z" transform="translate(-13.138 -46.622)" fill="#2a4e96"/>
        <path id="Path_1394" data-name="Path 1394" d="M109.671,201.434l-.261.162a20.92,20.92,0,0,1-4.766,2.513c.011-.858.019-1.479.019-1.479l1.315-.9Z" transform="translate(-23.597 -45.431)" fill="#eaa16e"/>
        <path id="Path_1395" data-name="Path 1395" d="M101.827,199.227s7.879.932,8.384-3.984,1.862-8.1-3.147-8.908-6.178.973-6.748,2.572S99.79,198.856,101.827,199.227Z" transform="translate(-22.551 -41.981)" fill="#ffb27d"/>
        <path id="Path_1396" data-name="Path 1396" d="M100.361,187.613s1.486,5.332,2.565,4.887,2.06-.81,2.2.856-1.059,3.841,2.448,3.484,6.811-10.193,5.547-11.7C109.476,180.783,95.294,182.414,100.361,187.613Z" transform="translate(-22.388 -41.191)" fill="#163560"/>
        <path id="Path_1397" data-name="Path 1397" d="M2.685,0h38.97V4.413H0V2.671A2.679,2.679,0,0,1,2.685,0Z" transform="translate(114.049 206.317) rotate(180)" fill="#77a4e5"/>
        <rect id="Rectangle_690" data-name="Rectangle 690" width="33.445" height="4.423" rx="2.212" transform="translate(99.187 206.326) rotate(180)" fill="#f99746"/>
        <path id="Path_1398" data-name="Path 1398" d="M118.952,298.4h2.513l.706-31.988h-3.841Z" transform="translate(-26.684 -60.083)" fill="#2b478b"/>
        <path id="Path_1399" data-name="Path 1399" d="M105.029,306.74h24.446v-2.208l-12.459-1.124-11.986,1.124Z" transform="translate(-23.684 -68.426)" fill="#2b478b"/>
        <circle id="Ellipse_52" data-name="Ellipse 52" cx="2.01" cy="2.01" r="2.01" transform="matrix(0.758, -0.652, 0.652, 0.758, 103.328, 237.732)" fill="#2b478b"/>
        <path id="Path_1400" data-name="Path 1400" d="M106.922,306.675a2.012,2.012,0,1,0-2.01,2.012,2.012,2.012,0,0,0,2.01-2.012Z" transform="translate(-23.204 -68.709)" fill="#2b478b"/>
        <path id="Path_1401" data-name="Path 1401" d="M105.548,268.507h22.695a2.1,2.1,0,0,0,2.1-2.1H103.45A2.1,2.1,0,0,0,105.548,268.507Z" transform="translate(-23.328 -60.083)" fill="#2b478b"/>
        <path id="Path_1402" data-name="Path 1402" d="M132.834,254.364a1.913,1.913,0,0,0,1.913-1.913V223c0-5.519-3.608-10-8.059-10H108.461c-4.451,0-8.061,4.476-8.061,10v31.366Z" transform="translate(-22.641 -48.04)" fill="#f99746"/>
        <path id="Path_1403" data-name="Path 1403" d="M133.758,254.361a3.489,3.489,0,0,0,3.489-3.489V222.984c0-5.519-3.608-10-8.059-10H110.961c-4.451,0-8.061,4.476-8.061,10v31.377Z" transform="translate(-23.204 -48.037)" fill="#cc6a27"/>
        <rect id="Rectangle_691" data-name="Rectangle 691" width="25.723" height="21.21" transform="translate(482.556 239.672) rotate(180)" fill="#7f9ef4"/>
        <rect id="Rectangle_692" data-name="Rectangle 692" width="25.723" height="21.21" transform="translate(495.419 239.672) rotate(180)" fill="#aec3ff"/>
        <path id="Path_1404" data-name="Path 1404" d="M589.864,301.946h4.075l-.358-1.145.358-.821h-4.075Z" transform="translate(-133.016 -67.653)" fill="#5d86e2"/>
        <path id="Path_1405" data-name="Path 1405" d="M606.45,289.982h4.077l-.36-1.147.36-.819H606.45Z" transform="translate(-136.756 -64.955)" fill="#7f9ef4"/>
        <path id="Path_1406" data-name="Path 1406" d="M605.263,288.015h-4.075l.358,1.147-.358.819h4.075Z" transform="translate(-135.569 -64.955)" fill="#5d86e2"/>
        <path id="Path_1407" data-name="Path 1407" d="M638.478,302.815H634.4l.36,1.146-.36.821h4.077Z" transform="translate(-143.059 -68.293)" fill="#7f9ef4"/>
        <rect id="Rectangle_693" data-name="Rectangle 693" width="7.403" height="2.881" transform="translate(486.331 219.901)" fill="#fff"/>
        <rect id="Rectangle_694" data-name="Rectangle 694" width="25.776" height="21.254" transform="translate(447.749 239.694) rotate(180)" fill="#7f9ef4"/>
        <rect id="Rectangle_695" data-name="Rectangle 695" width="25.776" height="21.254" transform="translate(460.638 239.694) rotate(180)" fill="#d4e4f8"/>
        <path id="Path_1408" data-name="Path 1408" d="M544.855,301.96h4.084l-.36-1.151.36-.821h-4.084Z" transform="translate(-122.866 -67.655)" fill="#2a4e96"/>
        <path id="Path_1409" data-name="Path 1409" d="M561.475,289.969h4.084l-.358-1.149.358-.821h-4.084Z" transform="translate(-126.614 -64.952)" fill="#618dc1"/>
        <path id="Path_1410" data-name="Path 1410" d="M560.286,288H556.2l.36,1.149-.36.821h4.084Z" transform="translate(-125.425 -64.952)" fill="#2a4e96"/>
        <path id="Path_1411" data-name="Path 1411" d="M593.567,302.828h-4.084l.36,1.149-.36.821h4.084Z" transform="translate(-132.93 -68.296)" fill="#618dc1"/>
        <rect id="Rectangle_696" data-name="Rectangle 696" width="7.417" height="2.886" transform="translate(451.532 219.881)" fill="#fff"/>
        <rect id="Rectangle_697" data-name="Rectangle 697" width="24.167" height="19.927" transform="translate(459.497 218.462) rotate(180)" fill="#ed823a"/>
        <rect id="Rectangle_698" data-name="Rectangle 698" width="24.167" height="19.927" transform="translate(471.579 218.462) rotate(180)" fill="#ff9e55"/>
        <path id="Path_1412" data-name="Path 1412" d="M562.1,275.014h3.828l-.337-1.077.337-.771H562.1Z" transform="translate(-126.755 -61.607)" fill="#dd732c"/>
        <path id="Path_1413" data-name="Path 1413" d="M577.683,263.772h3.828l-.337-1.077.337-.771h-3.828Z" transform="translate(-130.269 -59.072)" fill="#ffb27d"/>
        <path id="Path_1414" data-name="Path 1414" d="M576.568,261.924h-3.83l.337,1.078-.337.77h3.83Z" transform="translate(-129.154 -59.072)" fill="#dd732c"/>
        <path id="Path_1415" data-name="Path 1415" d="M607.771,275.828h-3.83l.339,1.078-.339.77h3.83Z" transform="translate(-136.19 -62.207)" fill="#ffb27d"/>
        <rect id="Rectangle_699" data-name="Rectangle 699" width="6.954" height="2.706" transform="translate(463.043 199.885)" fill="#fff"/>
        <rect id="Rectangle_700" data-name="Rectangle 700" width="1.073" height="1.075" transform="translate(144.557 134.316)" fill="#aec3ff"/>
        <rect id="Rectangle_701" data-name="Rectangle 701" width="1.073" height="1.075" transform="translate(147.346 134.316)" fill="#aec3ff"/>
        <rect id="Rectangle_702" data-name="Rectangle 702" width="1.073" height="1.075" transform="translate(150.135 134.316)" fill="#aec3ff"/>
        <rect id="Rectangle_703" data-name="Rectangle 703" width="1.073" height="1.073" transform="translate(144.557 136.708)" fill="#aec3ff"/>
        <rect id="Rectangle_704" data-name="Rectangle 704" width="1.073" height="1.073" transform="translate(147.346 136.708)" fill="#aec3ff"/>
        <rect id="Rectangle_705" data-name="Rectangle 705" width="1.073" height="1.073" transform="translate(150.135 136.708)" fill="#aec3ff"/>
        <rect id="Rectangle_706" data-name="Rectangle 706" width="1.073" height="1.073" transform="translate(144.557 139.359)" fill="#aec3ff"/>
        <rect id="Rectangle_707" data-name="Rectangle 707" width="1.073" height="1.073" transform="translate(147.346 139.359)" fill="#aec3ff"/>
        <rect id="Rectangle_708" data-name="Rectangle 708" width="1.073" height="1.073" transform="translate(150.135 139.359)" fill="#aec3ff"/>
        <path id="Path_1416" data-name="Path 1416" d="M200.4,209.56l1.74-.258c.192-.028.274-.226.194-.468l-1.693-5.156a.723.723,0,0,0-.664-.521l-1.74.256c-.192.028-.274.226-.194.469l1.693,5.154C199.836,209.347,200.151,209.606,200.4,209.56Z" transform="translate(-44.652 -45.819)" fill="#233862"/>
        <path id="Path_1417" data-name="Path 1417" d="M201.193,209.44l1.74-.256c.192-.03.274-.228.194-.469l-1.693-5.154a.742.742,0,0,0-.664-.53l-1.74.258c-.192.028-.274.226-.194.468l1.693,5.156A.724.724,0,0,0,201.193,209.44Z" transform="translate(-44.831 -45.791)" fill="#192e4f"/>
        <path id="Path_1418" data-name="Path 1418" d="M199.281,203.192h0c.051,0,.076-.067.056-.132l-1.375-4.559a.136.136,0,0,0-.129-.1h0c-.049,0-.076.067-.055.132l1.375,4.559A.134.134,0,0,0,199.281,203.192Z" transform="translate(-44.598 -44.746)" fill="#192e4f"/>
        <path id="Path_1419" data-name="Path 1419" d="M197.372,181.134a13.884,13.884,0,0,0-2.256-2.928,6.1,6.1,0,0,0-3.729-.81c-.318.627,1.043,1.53,1.326,2.107s.161,1.4,1.5,2.081c1.384.706,2.187,1.16,2.187,1.16Z" transform="translate(-43.147 -39.994)" fill="#ffb27d"/>
        <path id="Path_1420" data-name="Path 1420" d="M197.6,181.55c.646-1,.84-1.059.84-1.059s10.675,4.268,11.7,4.624,16.256,1.251,16.256,1.251l4.589,10.107s-20.3-4.631-22.869-5.583c-4.236-1.573-11.037-7.733-11.037-7.733a3.329,3.329,0,0,1,.522-1.608Z" transform="translate(-44.442 -40.708)" fill="#233862"/>
        <path id="Path_1421" data-name="Path 1421" d="M228.624,303.439s-.233,3.749-.928,4.631H216.983a1.906,1.906,0,0,1,1.71-1.532c1.693-.293,4.526-1.483,5.549-3.721C225.323,300.465,228.624,303.439,228.624,303.439Z" transform="translate(-48.93 -68.089)" fill="#163560"/>
        <path id="Path_1422" data-name="Path 1422" d="M253.239,302.781s.667,4.87-.249,4.953c-.122.012-4.074.011-5.622,0-1.926-.011-5,.012-5,.012a.5.5,0,0,1-.455-.757,2.029,2.029,0,0,1,1.454-.934c1.687-.325,4.5-1.564,5.484-3.818C249.887,299.87,253.239,302.781,253.239,302.781Z" transform="translate(-54.536 -67.953)" fill="#163560"/>
        <path id="Path_1423" data-name="Path 1423" d="M225.509,236.779s2.693,9.425,10.414,25.792,8.315,23.828,8.315,23.828l5.318-.251s-.5-19.482-4.146-27.741-4.39-30.861-4.39-30.861Z" transform="translate(-50.853 -51.319)" fill="#ed823a"/>
        <path id="Path_1424" data-name="Path 1424" d="M219.915,229a235.234,235.234,0,0,0,2.31,32.513c2.524,17.919,1.67,25.526,1.67,25.526l6.047.2s3.615-17.926,2.579-26.9,4.942-30.777,4.942-30.777Z" transform="translate(-49.59 -51.646)" fill="#ff9e55"/>
        <path id="Path_1425" data-name="Path 1425" d="M233.3,182.8l-2.852,2.118-4.123-.867c.058-.376.33-1.942.577-3.354.016-.083.03-.166.044-.247.214-1.2.4-2.233.4-2.233L231.2,176.3l1.435-.717c0,.026-.111,1.333-.125,1.525A12.322,12.322,0,0,0,233.3,182.8Z" transform="translate(-51.037 -39.601)" fill="#ffb27d"/>
        <path id="Path_1426" data-name="Path 1426" d="M226.306,183.09c.09-.037,5.607-1.666,6.208-1.469s.953,1.359.953,1.359l-8.518,2.425S225.153,183.575,226.306,183.09Z" transform="translate(-50.726 -40.959)" fill="#163560"/>
        <path id="Path_1427" data-name="Path 1427" d="M240.008,220.5c-.934,4.266-20.432-9.12-20.172-11.723.028-.286.058-.575.086-.861.353-3.625.706-7.171.729-9.487a32.684,32.684,0,0,1,.658-5.925c.339-1.723.755-3.285,1.117-4.5a4.984,4.984,0,0,1,1.363-2.206,4.928,4.928,0,0,1,1.555-.99,4.365,4.365,0,0,1,.484-.176c2.349-.681,5.6-1.525,6.479-1.267,2.386.706,4.158,4.9,5.415,10.257C240.075,203.643,240.619,217.715,240.008,220.5Z" transform="translate(-49.573 -41.344)" fill="#2a4e96"/>
        <path id="Path_1428" data-name="Path 1428" d="M232.383,177.373c-.845,1.619-4,3.018-5.311,3.53.016-.083.03-.166.044-.247.214-1.2.4-2.233.4-2.233l3.851-1.919C232.214,176.493,232.733,176.708,232.383,177.373Z" transform="translate(-51.205 -39.809)" fill="#fca56b"/>
        <path id="Path_1429" data-name="Path 1429" d="M224.971,175.364s6.947,2.167,8.23-2.18,3.043-6.993-1.338-8.56-5.736-.164-6.516,1.183S223.2,174.689,224.971,175.364Z" transform="translate(-50.536 -36.974)" fill="#ffb27d"/>
        <path id="Path_1430" data-name="Path 1430" d="M225.878,164.7s.443,5.059,1.49,4.84,1.994-.383,1.841,1.142-1.6,3.285,1.62,3.555,7.858-8.043,6.972-9.618C235.233,160.073,222.172,159.155,225.878,164.7Z" transform="translate(-50.788 -36.283)" fill="#163560"/>
        <path id="Path_1431" data-name="Path 1431" d="M220.438,223.8c1.931.706-.034-1.919,0-2.471.15-2.4-.791-5.431-.5-8.319l11.8-7.042S234.524,223.693,220.438,223.8Z" transform="translate(-49.583 -46.454)" fill="#233862"/>
        <path id="Path_1432" data-name="Path 1432" d="M239.98,223.495c-5.034,9.33-5.835,12.885-5.835,12.885-4.383-.5-11.891-9.115-14.272-11.413,0,0-.325-10.6-.065-13.2l3.639-.106s6.58,1.668,8.285-.595.967-13.37.967-13.37l5-1.082C240.047,206.642,241.332,220.99,239.98,223.495Z" transform="translate(-49.544 -44.343)" fill="#ff9e55"/>
        <path id="Path_1433" data-name="Path 1433" d="M206.469,207.246a6.669,6.669,0,0,1-1.813-.588c-.552-.455-.988-1.216-1.258-1.3-.455-.141-1.571-1.544-1.664-1.643-.037-.039-.337.108-.265.337s.242.736.3.916c.263.8.251,1.043-.706.734-.124-.041-2.326-.74-2.552-.24a4.347,4.347,0,0,0,1.836,3.424c1.149.519,3.987.051,4.192.111C206.278,209.5,206.469,207.246,206.469,207.246Z" transform="translate(-44.757 -45.944)" fill="#ffb27d"/>
        <path id="Path_1434" data-name="Path 1434" d="M207.064,203.416s11.7,1.989,12.733,1.484c1.654-.807-.642-12.673-.642-12.673A3.415,3.415,0,0,1,222.2,188.9c2.73-.551,5.364,1.495,5.364,1.495s2.4,2.143,2.09,4.52c-.678,5.27-1.733,15.989-5.258,17.633-4.547,2.118-17.7-5.878-17.7-5.878a2.283,2.283,0,0,1-.376-1.532A3.583,3.583,0,0,1,207.064,203.416Z" transform="translate(-46.523 -42.584)" fill="#2a4e96"/>
        <path id="Path_1435" data-name="Path 1435" d="M234.85,194.925l-.969.21s-2.049-8.867-8.933-8.912a4.928,4.928,0,0,1,1.555-.99C229.027,185.909,233.406,188.065,234.85,194.925Z" transform="translate(-50.726 -41.778)" fill="#ff9e55"/>
        <path id="Path_1436" data-name="Path 1436" d="M193.586,180.524s-1.9-1.163-1.986-.664c-.044.249.8.928,1.138,1.22s1.2.861,1.2.861Z" transform="translate(-43.206 -40.538)" fill="#ffb27d"/>
        <rect id="Rectangle_709" data-name="Rectangle 709" width="511.168" height="1.887" rx="0.882" transform="translate(0 239.692)" fill="#2e3552"/>
      </g>
    </g>
  </g>
</svg>
